<?xml version="1.0" encoding="utf-8"?>
<!-- Generator: Adobe Illustrator 27.0.0, SVG Export Plug-In . SVG Version: 6.00 Build 0)  -->
<svg version="1.1" id="Capa_1" xmlns="http://www.w3.org/2000/svg" xmlns:xlink="http://www.w3.org/1999/xlink" x="0px" y="0px"
	 viewBox="0 0 341 75" style="enable-background:new 0 0 341 75;" xml:space="preserve">
<style type="text/css">
	.st0{fill:#FFFFFF;}
</style>
<path class="st0" d="M176.8,32.8h-11.2c-0.2-1.4-0.6-2.7-1.3-3.9c-0.6-1.1-1.4-2.1-2.4-2.9c-1-0.8-2.1-1.4-3.4-1.8
	c-1.3-0.4-2.7-0.6-4.2-0.6c-2.7,0-5.1,0.7-7.1,2c-2,1.3-3.6,3.3-4.7,5.8c-1.1,2.5-1.7,5.6-1.7,9.3c0,3.7,0.6,6.9,1.7,9.4
	c1.1,2.5,2.7,4.5,4.7,5.8c2,1.3,4.3,1.9,7,1.9c1.5,0,2.9-0.2,4.1-0.6c1.3-0.4,2.4-1,3.4-1.7c1-0.8,1.8-1.7,2.5-2.8
	c0.7-1.1,1.1-2.3,1.4-3.7l11.2,0.1c-0.3,2.4-1,4.7-2.2,7c-1.1,2.2-2.7,4.2-4.6,6c-1.9,1.7-4.2,3.1-6.9,4.1c-2.7,1-5.7,1.5-9,1.5
	c-4.7,0-8.8-1.1-12.5-3.2c-3.7-2.1-6.6-5.2-8.7-9.2c-2.1-4-3.2-8.9-3.2-14.5c0-5.7,1.1-10.6,3.2-14.6c2.1-4,5.1-7.1,8.7-9.2
	c3.7-2.1,7.8-3.2,12.4-3.2c3,0,5.8,0.4,8.4,1.3c2.6,0.9,4.9,2.1,6.9,3.7c2,1.6,3.6,3.6,4.9,6C175.6,27,176.4,29.7,176.8,32.8z"/>
<path class="st0" d="M202,67.6c-4,0-7.4-0.8-10.3-2.5c-2.9-1.7-5.1-4.1-6.7-7.1c-1.6-3.1-2.4-6.6-2.4-10.6c0-4.1,0.8-7.6,2.4-10.6
	c1.6-3.1,3.8-5.4,6.7-7.1c2.9-1.7,6.3-2.6,10.3-2.6c4,0,7.4,0.9,10.3,2.6c2.9,1.7,5.1,4.1,6.7,7.1c1.6,3,2.4,6.6,2.4,10.6
	c0,4-0.8,7.6-2.4,10.6c-1.6,3-3.8,5.4-6.7,7.1C209.4,66.7,206,67.6,202,67.6z M202.1,59.1c1.8,0,3.3-0.5,4.5-1.5
	c1.2-1,2.1-2.5,2.7-4.2c0.6-1.8,0.9-3.8,0.9-6.1s-0.3-4.3-0.9-6.1c-0.6-1.8-1.5-3.2-2.7-4.2c-1.2-1-2.7-1.6-4.5-1.6
	c-1.8,0-3.4,0.5-4.6,1.6c-1.2,1-2.2,2.5-2.8,4.2c-0.6,1.8-0.9,3.8-0.9,6.1s0.3,4.3,0.9,6.1c0.6,1.8,1.6,3.2,2.8,4.2
	C198.7,58.6,200.3,59.1,202.1,59.1z"/>
<path class="st0" d="M242.7,67.4c-3,0-5.7-0.8-8.1-2.3c-2.4-1.6-4.3-3.8-5.7-6.8c-1.4-3-2.1-6.7-2.1-11.1c0-4.5,0.7-8.2,2.2-11.2
	c1.4-3,3.4-5.2,5.8-6.7c2.4-1.5,5.1-2.2,8-2.2c2.2,0,4,0.4,5.5,1.1c1.5,0.7,2.7,1.7,3.6,2.8c0.9,1.1,1.6,2.2,2.1,3.2h0.3V14.4h10.9
	v52.4h-10.7v-6.3h-0.5c-0.5,1.1-1.2,2.2-2.2,3.2c-0.9,1.1-2.1,1.9-3.6,2.6C246.6,67.1,244.8,67.4,242.7,67.4z M246.2,58.8
	c1.8,0,3.2-0.5,4.4-1.4c1.2-1,2.2-2.3,2.8-4.1c0.7-1.7,1-3.8,1-6.1c0-2.3-0.3-4.4-1-6.1c-0.6-1.7-1.6-3.1-2.8-4
	c-1.2-0.9-2.7-1.4-4.5-1.4c-1.8,0-3.3,0.5-4.5,1.5c-1.2,1-2.2,2.3-2.8,4c-0.6,1.7-0.9,3.7-0.9,6c0,2.3,0.3,4.3,0.9,6.1
	c0.6,1.7,1.6,3.1,2.8,4.1C242.9,58.3,244.4,58.8,246.2,58.8z"/>
<path class="st0" d="M291.7,67.6c-4,0-7.5-0.8-10.4-2.5c-2.9-1.7-5.1-4-6.7-7c-1.6-3-2.4-6.6-2.4-10.8c0-4,0.8-7.6,2.4-10.6
	c1.6-3.1,3.8-5.4,6.6-7.1c2.9-1.7,6.2-2.6,10.1-2.6c2.6,0,5,0.4,7.2,1.3c2.2,0.8,4.2,2.1,5.9,3.7c1.7,1.7,3,3.7,3.9,6.2
	c0.9,2.5,1.4,5.4,1.4,8.7v3h-33.2v-6.8h22.9c0-1.6-0.3-3-1-4.2c-0.7-1.2-1.6-2.2-2.8-2.8c-1.2-0.7-2.6-1-4.2-1
	c-1.7,0-3.1,0.4-4.4,1.2c-1.3,0.8-2.2,1.8-3,3c-0.7,1.3-1.1,2.7-1.1,4.2V50c0,1.9,0.4,3.6,1.1,5c0.7,1.4,1.8,2.5,3.1,3.3
	c1.3,0.8,2.9,1.2,4.7,1.2c1.2,0,2.3-0.2,3.3-0.5c1-0.3,1.9-0.9,2.6-1.5c0.7-0.7,1.3-1.5,1.6-2.5l10.1,0.7c-0.5,2.4-1.6,4.5-3.1,6.3
	c-1.6,1.8-3.6,3.2-6.1,4.2C297.8,67.1,295,67.6,291.7,67.6z"/>
<path class="st0" d="M316.6,66.8V27.5h10.6v6.9h0.4c0.7-2.4,1.9-4.3,3.6-5.5c1.7-1.3,3.6-1.9,5.8-1.9c0.5,0,1.1,0,1.8,0.1
	c0.6,0.1,1.2,0.2,1.7,0.3V37c-0.5-0.2-1.2-0.3-2.1-0.4c-0.9-0.1-1.7-0.2-2.5-0.2c-1.6,0-3,0.3-4.3,1c-1.2,0.7-2.2,1.6-3,2.9
	c-0.7,1.2-1.1,2.6-1.1,4.2v22.2H316.6z"/>
<path class="st0" d="M102.5,32.5c-2.1,0-3.5-1.2-3.5-3.7V14.3C99,5.1,95.2,0,85.3,0h-4.6v9.8h1.4c3.9,0,5.7,2.1,5.7,5.9v12.8
	c0,5.6,1.6,7.8,5.3,9c-3.6,1.1-5.3,3.4-5.3,9c0,3.2,0,6.3,0,9.5c0,2.6,0,5.2-0.7,7.9c-0.7,2.5-1.8,4.8-3.4,6.8c-0.9,1.2-1.9,2.1-3,3
	v1.3h4.6c9.8,0,13.6-5.1,13.6-14.3V46.1c0-2.6,1.3-3.7,3.5-3.7h2.6v-9.8L102.5,32.5L102.5,32.5z"/>
<path class="st0" d="M71.4,14.7H57.3c-0.3,0-0.6-0.3-0.6-0.6V13c0-0.3,0.3-0.6,0.6-0.6h14.1c0.3,0,0.6,0.3,0.6,0.6v1.1
	C72,14.5,71.7,14.7,71.4,14.7z"/>
<path class="st0" d="M73.8,28.7H63.5c-0.3,0-0.6-0.3-0.6-0.6V27c0-0.3,0.3-0.6,0.6-0.6h10.3c0.3,0,0.6,0.3,0.6,0.6v1.1
	C74.4,28.4,74.1,28.7,73.8,28.7z"/>
<path class="st0" d="M77.9,21.7H57.3c-0.3,0-0.6-0.3-0.6-0.6V20c0-0.3,0.3-0.6,0.6-0.6h20.5c0.3,0,0.6,0.3,0.6,0.6v1.1
	C78.4,21.4,78.2,21.7,77.9,21.7z"/>
<path class="st0" d="M41,17.9c1.4,0,2.8,0.1,4.1,0.5v-2.6c0-3.7,1.9-5.9,5.7-5.9h1.4V0h-4.6C37.9,0,34,5.1,34,14.3v4.8
	C36.3,18.3,38.6,17.9,41,17.9z"/>
<path class="st0" d="M82.2,53c-1-8.2-7.2-15-15.2-16.6c-2.2-0.5-4.4-0.5-6.6-0.1c-0.1,0-0.1-0.1-0.1-0.1c-3.5-7.4-11-12.3-19.1-12.3
	s-15.5,4.8-19.1,12.2c-0.1,0-0.1,0.1-0.1,0.1c-2.3-0.3-4.6-0.1-6.8,0.5C7.2,38.6,1.3,45.3,0.2,53.4C0.1,54.2,0,55.1,0,55.9
	c0,2.5,1.6,4.7,4.1,5c3,0.5,5.6-1.9,5.5-4.8c0-0.5,0-1,0.1-1.4c0.5-4.1,3.6-7.6,7.7-8.6c1.3-0.3,2.5-0.4,3.7-0.2
	c3.9,0.5,7.7-1.5,9.3-5c1.2-2.6,3.1-4.8,5.6-6.1c2.8-1.4,6-1.5,8.9-0.5c3,1.1,5.3,3.4,6.7,6.3c1.5,2.8,2.2,4.8,5.3,5.2
	c1.3,0.2,4.8,0.1,6.2,0.1c2.6,0,5.2,0.9,7,2.8c1.2,1.3,2.1,2.9,2.5,4.7c0.6,2.9-0.1,5.8-1.8,8c-1.2,1.5-2.9,2.7-4.7,3.2
	c-0.9,0.3-1.8,0.3-2.7,0.3c-0.5,0-1.2,0-2,0c-2.5,0-7.9,0-12,0c-2.8,0-5-2.3-5-5.1v-9.6v-9.4c0-0.8-0.6-1.4-1.4-1.4h-2
	c-3.9,0.1-7,4.5-7,9.1c0,4.6,0,17,0,17c0,5,4,9.1,8.9,9.1c0,0,22-0.1,22.3-0.1c5.1-0.5,9.8-3.2,12.9-7.2
	C81.3,63.5,82.8,58.3,82.2,53z"/>
</svg>
