<?xml version="1.0" encoding="utf-8"?><svg xmlns="http://www.w3.org/2000/svg" xml:space="preserve" id="Capa_1" x="0" y="0" style="enable-background:new 0 0 75.1 23.8" version="1.1" viewBox="0 0 75.1 23.8"><style>.st0{fill:#676767}.st1{fill:#efefef}.st2{fill:#4d4d4d}.st3{fill:#e5e5e5}.st4{fill:#cbcbcb}.st5{fill:#d4d0cf}.st6{fill:#b2b1b1}.st8{fill:#373636}.st9{fill:gray}.st11{fill:#9e5a2d}.st12{fill:#d18c5f}</style><path d="M32.5 11.5c.4-.4.8-.7 1.4-.8 1-.1 1.8.3 2.1 1.3.3.9.4 1.8.1 2.7-.4 1.3-1.3 2-2.8 2-.7 0-1.4-.2-2.1-.3-.1 0-.2-.2-.2-.2V8.8c0-.1.1-.2.2-.2h1c.2 0 .3 0 .3.2v2.7zm0 2.7v1.1c0 .1 0 .2.1.2.6.4 1.7.1 2-.6.4-.8.4-1.7 0-2.5-.2-.5-.8-.7-1.3-.4-.5.4-1 .8-.9 1.5.1.3.1.5.1.7zM58.3 11.5c.3-.4.8-.7 1.3-.8 1.3-.2 2.1.5 2.2 1.8.1 1.3 0 2.6 0 3.9 0 .1-.1.2-.2.2h-1c-.2 0-.2-.1-.2-.2V12.7c0-.7-.6-1-1.2-.6-.3.2-.5.5-.8.8-.1.1-.1.2-.1.3v3.2c0 .2-.1.3-.3.3h-.8c-.2 0-.3-.1-.3-.3V8.8c0-.2 0-.3.3-.3h.8c.2 0 .3 0 .3.3v2.7zM24 10.8h1.4c.1 0 .2.1.2.2.5 1.3.9 2.5 1.4 3.8 0 .1.1.1.1.3.2-.5.4-1 .5-1.5.3-.9.6-1.8 1-2.6 0-.1.2-.2.3-.2H30c.1 0 .2 0 .1.2-.8 1.9-1.6 3.9-2.4 5.8-.2.4-.4.8-.7 1.1-.7.9-1.6 1.1-2.7 1-.2 0-.2-.1-.2-.2V18c0-.2.1-.3.3-.2.8.2 1.4-.2 1.7-1 .1-.1.1-.3 0-.5-.7-1.8-1.4-3.6-2.1-5.3.1 0 0-.1 0-.2zM66.5 14.1h-1.6c-.2 0-.3.1-.2.3.1.7.7 1.3 1.5 1.3.6 0 1.2-.1 1.8-.2.2 0 .2 0 .2.2 0 .9 0 1-.9 1.1-.6.1-1.2.1-1.8.1-1.2-.1-1.9-.8-2.2-2-.2-.8-.1-1.6.2-2.4.5-1.2 1.7-1.8 3.1-1.6 1.2.3 2 1.2 1.9 2.6 0 .5-.3.7-.7.7-.5-.1-.9-.1-1.3-.1zm-.6-1h1c.1 0 .2-.1.2-.1 0-.5-.4-1.1-.9-1.2-.7-.2-1.5.4-1.5 1.2 0 0 .1.1.2.1h1zM40.5 16.8c-1.2 0-2.1-.2-2.7-1.1-.8-1.2-.7-3.9 1.1-4.8 1.8-.8 3.7.3 3.7 2.3 0 .6-.3.9-.9.9h-2.8c-.2 0-.3.1-.2.3.1.8.7 1.3 1.5 1.3.6 0 1.2-.1 1.8-.2.2 0 .2 0 .2.2v.4c.1.4-.1.5-.5.6-.4-.1-.9 0-1.2.1zm-.5-3.7h1c.3 0 .3-.1.2-.3-.1-.7-.5-1.1-1.2-1-.6 0-1.2.5-1.2 1.2 0 .1.1.2.2.2.3-.1.7-.1 1-.1zM53.5 16.8c-2.1-.1-3.3-1.2-3.3-3.3 0-.7 0-1.4.2-2 .4-1.5 1.5-2.4 3.1-2.4.6 0 1.1.1 1.7.2.2 0 .3.1.2.3v1c0 .2 0 .2-.2.1-.5-.1-1-.3-1.5-.3-1-.1-1.6.5-1.9 1.4-.2.7-.2 1.4-.1 2.1.3 1.3 1.2 1.9 2.5 1.6.3-.1.7-.2 1-.3.2-.1.2 0 .2.1v.6c0 .6 0 .6-.5.7-.4 0-.9.1-1.4.2zM23.2 10.6c-.6-.1-1.1-.3-1.6-.3-1.1-.1-1.8.5-2 1.5-.1.7-.1 1.4 0 2.1.2 1.2 1.2 1.8 2.4 1.5.4-.1.7-.2 1-.3.1-.1.2 0 .2.1v.6c0 .4-.2.6-.5.7-.7.2-1.5.3-2.2.1-1.2-.2-2-.9-2.3-2.1-.3-1-.3-2.1 0-3.1.4-1.5 1.6-2.3 3.1-2.4.6 0 1.2.1 1.7.2.1 0 .2.2.2.3v1.1zM71.2 14.7V13c0-.2 0-.2-.2-.2h-1.2c-.2 0-.2-.1-.2-.2V12c0-.2.1-.2.2-.2H71c.2 0 .2-.1.2-.2 0-.4 0-.9.1-1.3.2-1 .9-1.6 2.1-1.7.5 0 1 .1 1.6.1.1 0 .2.1.2.2v.9c-.3 0-.6-.1-.8-.1h-.6c-.6 0-.9.4-1 1v.9c0 .2.1.2.2.2h1.9c.2 0 .2 0 .2.2 0 .9 0 .9-.8.9h-1.2c-.2 0-.3.1-.3.3v3.4c0 .2-.1.3-.3.3h-1c-.2 0-.2-.1-.2-.2-.1-.9-.1-1.4-.1-2zM45.6 11.5c.4-.2.7-.6 1.1-.7 1.3-.4 2.3.3 2.5 1.7 0 .4-.1.6-.5.6h-.1c-.2 0-.5.1-.7 0-.1-.1-.1-.4-.2-.6-.1-.5-.6-.7-1-.5-.6.3-1.1.7-1 1.5v2.9c0 .2 0 .3-.3.3h-1c-.1 0-.2-.1-.2-.2v-5.4c0-.1.1-.2.2-.2h.8c.2 0 .3 0 .3.2.1.1.1.3.1.4z" class="st0"/><path d="M13.9 15.2c0 .3.1.3.4.3.1 0 .1 0 .2-.1.9-.3 1.6.2 1.6 1.1 0 .2-.2.4-.3.6l-.3.3c-.2.2-.2.4 0 .6.2.2.5.5.6.8.1.5-.2.9-.5 1.2-.2.3-.6.2-.9.1-.1 0-.2-.1-.3-.1-.3-.1-.5 0-.5.3 0 .4-.1.7-.4 1-.2.2-.2.5-.4.7-.6.4-1.2.8-1.8 1.1-.7.3-1.4.5-2.1.6-1 .1-2 .1-2.9-.2-1-.3-1.9-.7-2.7-1.3-.1-.1-.2-.3-.4-.4-.2-.1-.3-.3-.5-.4C1.3 21 .5 20.2.2 18.7c-.1-.9.2-1.7.8-2.4.2-.3.4-.6.4-.9.2-.8.6-1.4 1.3-1.8.3-.1.5-1 .5-1.3-.2-.5-.2-.9-.3-1.4v-2c0-.3-.1-.5-.4-.7C1.4 7.5.8 6.4.8 5c0-1.8 1.4-3.5 3.3-3.7h1.2c.2 0 .4 0 .5-.2C6.6.4 7.6 0 8.6 0c.7 0 1.3.2 1.9.6.2.1.4.1.6 0 .5-.3 1.1-.2 1.7-.1.1 0 .2.2.3.3-.7-.3-1.3-.4-2 0h-.4C9.9.3 9 0 8.1.2c-.8.1-1.4.4-2 1l-.1.1c-.2 0-.4.1-.6.1-.7-.1-1.4-.1-2.1.2-.1 0-.3.2-.4.3l-.6.3s-.1 0-.1.1l-.3.3s0 .1-.1.1c0 .1-.1.2-.1.3l-.3.3v.1c-.1.3-.3.6-.4.9 0 0 .1 0 .1.1v.1c-.2 0-.2.1-.1.3v.5c0 .1 0 .2.1.3v.2c.1.2.1.5.2.8v.1c0 .1.1.1.1.2V7c.2 0 .3.2.5.4H2c-.2.3.1.4.3.5.1 0 .2.1.3.1l.2.2c.2 0 .3.1.3.3v2.9l.1.1V11.8c-.2.2 0 .2.1.3v.9s0 .1-.1.1c0 .1 0 .1-.1.2v.1s0 .1-.1.1l-.3.3c-.7.4-1.2 1-1.2 1.9l-.1.1c0 .4-.3.6-.5.9-.7.8-.8 2.2-.3 3.1.5.8 1.2 1.3 2.2 1.5.1 0 .3.1.3.2.2.5.6.7 1 .9 1.4.8 2.8 1.3 4.4 1.2 1.3-.1 2.4-.5 3.5-1.1.5-.3 1.1-.5 1.2-1.2 0 0 0-.1.1-.1.3-.2.4-.6.4-.9.1-.5.3-.7.8-.5.6.3 1.1.1 1.3-.5 0-.1.1-.3.1-.4l.1-.1s-.1 0-.1-.1v-.2h-.2c-.1-.1-.2-.2-.4-.3l-.1-.1c0-.1-.1-.2-.1-.3v-.3c.1-.2.2-.3.3-.5l.3-.3c.2 0 .3-.1.2-.3v-.1c-.1-.1-.1-.2-.2-.3-.1-.1-.2-.2-.3-.4l-.2-.2c-.1 0-.2-.1-.4 0s-.5.2-.7.2c-.1 0-.3-.2-.4-.3.1 0 .1-.1.2-.1z" class="st1"/><path d="M13.3 13.9s.1 0 .1.1c.3.3.6.6.6 1.1-.2.1-.4.1-.5.2-.1.1-.2.2-.4.2l-.2.2-.1-.1c-.5.3-1.1.2-1.7.2-.1 0-.2 0-.2-.1-.1 0-.2-.1-.3-.1l-.6-.3c-.1-.1-.1-.2-.2-.2-.4-.2-.7-.6-.8-1.1h3.5c.1 0 .2-.1.3-.2h.2c.2 0 .2 0 .3.1z" class="st2"/><path d="M13.3 13.9c-.1 0-.1-.1-.2-.1 0-.3 0-.5-.1-.8-.2-.4-.2-.7 0-1.1 0-.1.1-.2.1-.3 0-.7 0-1.4.1-2.2 0-.2.1-.4.2-.5.1-.1.4 0 .5.1.8.6 1 .4 1.5-.2l.1-.1c.5-.5.5-.7.1-1.2-.4-.6-.3-.9.4-1h.1c.3-.1.5-.2.5-.6v-.8c0-.5-.2-.7-.7-.8-.1 0-.3 0-.4-.1-.4-.1-.4-.5-.1-.9.4-.5.4-.7-.1-1.2l-.1-.1c-.5-.5-.9-.5-1.5-.1-.2.1-.5.2-.6-.1-.1-.2-.2-.5-.3-.7-.1-.3-.2-.5-.6-.5h-.8c-.2.1-.4.1-.5.2h-.5c-.3-.1-.5-.3-.8-.4L9.5.3h-.3s-.1 0-.1-.1c.1.1-.1.1-.3.1h-.5c-.1 0-.2 0-.3.1-.6-.1-1.1.2-1.6.6-.1 0-.2.1-.3.1.5-.6 1.2-.8 2-1C9 0 9.9.3 10.6.8c.1.1.3.1.4 0 .7-.4 1.4-.3 2 0v.1c.1.2.1.5.2.7.1.4.3.5.6.3.1-.1.2-.1.3-.2.3-.2.5-.2.8 0 .2.2.4.3.5.5.6.6.6.8.1 1.5-.2.3-.1.6.2.7.3.1.6.1.8.3.5.3.4.8.3 1.3 0 .4-.2.7-.7.7-.8.1-.8.3-.4.9.3.5.3.8-.1 1.2l-.5.5c-.3.3-.7.4-1.1.1-.1-.1-.2-.1-.3-.2-.2-.1-.5 0-.5.3s0 .6-.1 1c0 .7 0 1.3-.2 2-.1.4.1.9.2 1.4.2-.1.2-.1.2 0z" class="st3"/><path d="M13.3 13.8c0-.1 0-.1 0 0-.1-.5-.4-1-.3-1.4.2-.7.1-1.3.2-2 0-.3 0-.6.1-1 0-.3.3-.4.5-.3.1.1.2.1.3.2.4.3.8.3 1.1-.1l.5-.5c.3-.3.3-.6.1-1-.4-.7-.4-.8.4-.9.5-.1.7-.3.7-.7 0-.5.2-1-.2-1.4-.2-.2-.5-.2-.8-.3-.3-.1-.4-.4-.2-.7.5-.6.5-.9-.1-1.5-.3-.2-.4-.4-.6-.5-.3-.2-.5-.2-.8 0-.1.1-.2.1-.3.2-.3.2-.6.1-.6-.3 0-.2-.1-.5-.2-.7l.3.6c.1.4.2.5.5.3.8-.5.9-.5 1.6.2l.4.4c.4.5.3.8 0 1.3-.4.3-.4.4.1.5.2.1.5.1.6.2.5.4.3 1 .3 1.5 0 .3-.1.7-.4.8-.2.1-.3.1-.5.1-.4.1-.5.2-.3.6.5.7.4 1-.1 1.5l-.4.4c-.4.3-.8.4-1.2.1l-.2-.2c-.1 0-.2-.1-.3-.1-.1 0-.1.2-.1.3v1.2c0 .5-.1.9-.2 1.4 0 .2 0 .5.1.7v1.1z" class="st1"/><path d="M13.5 15.2c.2-.1.4-.1.5-.2v.1l-.1.1-.2.2c.1.1.3.3.4.3.2 0 .5-.1.7-.2h.4c-.3.1-.6.2-.8.3-.6.2-.9 0-.9-.6z" class="st4"/><path d="M14 15.1s0-.1 0 0c0-.5-.3-.9-.6-1.2.4.1.8.8.6 1.2.1-.1 0 0 0 0zM2.3 7.9c-.2-.1-.5-.2-.4-.5l.1-.1c-.1-.2-.2-.3-.3-.4-.1-.3-.3-.6-.4-.9-.2-.6-.2-1.3 0-2 0-.1.1-.2.1-.2.2-.7.7-1.2 1.2-1.6.9-.6 1.8-.8 2.9-.5.2 0 .3 0 .4-.1.2-.2.3-.4.6-.5C7 .8 7.5.6 8 .4c0 .1.1.2.1.2v11.3H3.2V8.5c0-.1 0-.2-.1-.3-.3-.3-.6-.5-1-.7.1.1.1.2.2.4z" class="st3"/><path d="M13.5 15.2c.1.6.4.7.9.5.3-.1.6-.2.8-.3l.2.2c.1.3.3.5.4.8l-.1.3-.3.3c-.5.3-.6.7-.3 1 0 0 .1 0 .1.1l.1.1c.1.1.2.2.4.3 0 .1.1.1.1.2v.2c-.1.2-.2.4-.4.6-.1.3-.3.4-.6.2-.2-.1-.4-.2-.5-.2-.4-.2-.7.1-.8.5 0 .3-.1.5-.1.8 0 .1-.1.1-.2.2v-2.4l.1-.1c.5-.4.6-1.1.1-1.5-.5-.2-.5-.6-.4-1v-.3l.2-.2c0-.1.1-.2.3-.3z" class="st0"/><path d="M13.1 21c.1-.1.2-.1.2-.2.1-.3.1-.5.1-.8 0-.4.4-.6.8-.5.2.1.4.1.5.2.3.2.5.1.6-.2.1-.2.2-.4.4-.6h.1c0 .1 0 .3-.1.4-.2.6-.7.8-1.3.5-.5-.2-.8-.1-.8.5 0 .3-.1.7-.4.9 0 0-.1 0-.1.1-.1.7-.6 1-1.1 1.2-1.1.7-2.2 1.1-3.5 1.1-1.6.1-3.1-.4-4.4-1.2-.4-.2-.8-.5-1-.9 0-.1-.2-.1-.3-.2-.9-.2-1.7-.7-2.2-1.5-.5-.9-.4-2.3.3-3.1.2-.3.5-.5.5-.9l.1-.1c.1-.9.5-1.5 1.2-1.9l.3-.3s0-.1.1-.1v-.1c0-.1 0-.1.1-.2 0 0 0-.1.1-.1 0 .3 0 .5.1.8h-.2c-.7.2-1.2.7-1.3 1.3-.2.7-.5 1.2-.9 1.8-.6.9-.7 1.9-.1 2.8.6.9 1.4 1.4 2.5 1.4-.1.5.2.7.6.9 1.3.8 2.6 1.3 4.2 1.4.1 0 .2.1.2 0 1.1-.1 2.2-.3 3.2-.9.6-.3 1.3-.6 1.5-1.5z" class="st5"/><path d="M3.3 13.7c0-.3 0-.5-.1-.8v-.8h.2c0 .1.1.1.1.2v.4l-.1.2c.1 0 .2.1.3.1h4.4v.8H6.6c-1.1 0-2.2-.1-3.3-.1z" class="st3"/><path d="M8 .4c-.5.2-1 .4-1.5.7-.2.1-.4.3-.6.5-.1.1-.2.2-.4.1-1-.3-2-.1-2.9.5-.5.4-1 .9-1.2 1.6 0 .1-.1.2-.1.2h-.1c.1-.2.1-.4.2-.6v-.1l.3-.3.2-.2s0-.1.1-.1c0-.2.1-.3.2-.4 0 0 .1 0 .1-.1l.6-.3h.2c.6-.3 1.3-.5 2-.3.2 0 .3.1.5 0 .1-.1.2-.3.4-.4l.1-.1c.1 0 .2-.1.3-.1.5-.4 1-.7 1.6-.6 0-.1 0 0 0 0z" class="st5"/><path d="M2.3 7.9c-.1-.2-.1-.3-.2-.4.4.2.8.5 1.1.7.1 0 .1.2.1.3v3.2h-.1V8.8c0-.1-.1-.2-.1-.2 0-.2-.1-.3-.3-.3-.1-.2-.1-.2-.2-.3-.1 0-.2-.1-.3-.1z" class="st4"/><path d="M3.1 8.5c0 .1.1.2.1.2v2.7c-.1 0-.1-.1-.1-.1-.1-.9-.1-1.8 0-2.8-.1.1 0 0 0 0zM6 1.2c-.2.1-.3.3-.5.3H5c-.7-.1-1.4 0-2 .3h-.2c.2 0 .4-.2.5-.2.7-.2 1.3-.3 2-.2.3 0 .5-.1.7-.2z" class="st3"/><path d="M1.2 4s.1 0 0 0c-.1.7-.1 1.4.1 2 .1.3.2.6.4.9-.1 0-.2 0-.3-.1v-.2c0-.1-.1-.1-.1-.2 0-.2-.1-.3-.1-.5l-.1-.1V4.2c.1.1.1-.1.1-.2zM15.1 18.1c-.4-.3-.3-.8.3-1-.1.2-.2.3-.3.5v.5zM15.8 16.5c-.1-.3-.3-.5-.4-.8.1.1.2.2.3.4.1.1.1.2.2.3-.1 0-.1 0-.1.1z" class="st4"/><path d="M1.1 5.8v.1l.1.1c0 .2.1.3.1.5v.1c-.1-.3-.1-.6-.2-.8zM1.2 4c0 .1-.1.2-.1.4L1 4.3c.1-.3.3-.6.4-.9-.1.2-.1.4-.2.6zM1.4 6.9c.1 0 .2 0 .3.1.1.1.1.3.2.4-.2-.2-.3-.4-.5-.5zM2.9 1.9l-.6.3.6-.3z" class="st3"/><path d="M1.1 4.8v.6H1v-.6h.1z" class="st5"/><path d="M15.8 16.5c.2.3.1.4-.1.3 0-.1 0-.2.1-.3z" class="st3"/><path d="M1.9 7.4c-.1-.2-.1-.3-.2-.5l.3.3c0 .1-.1.1-.1.2z" class="st4"/><path d="m2.2 2.3-.3.3.3-.3zM1.7 3l-.3.3.3-.3zM1 5.3h.1v.3H1c.1-.1 0-.2 0-.3zM1.1 4.8H1c-.1-.2-.1-.3.1-.3v.3zM3.2 12.1c0-.1-.2-.2 0-.4 0 .1.1.1.1.2s0 .1-.1.2c.1 0 .1 0 0 0zM15.8 16.3c-.1-.1-.1-.2-.2-.3.1.1.2.2.2.3z" class="st3"/><path d="M15.1 17.9v-.3.3z" class="st5"/><path d="M15.1 18.1v-.2c0 .1.1.2.1.3-.1 0-.1-.1-.1-.1zM15.8 18.8c0-.1-.1-.1-.1-.2h.2c-.1.1-.1.1-.1.2z" class="st3"/><path d="M3.3 11.9c0-.1-.1-.1-.1-.2v-.1h.1v.3z" class="st5"/><path d="M1.8 2.8s-.1.1-.1.2c0-.1.1-.2.1-.2zM2.6 8l.2.2-.2-.2z" class="st3"/><path d="M3.2 12.1c.1 0 .1 0 0 0 .1 0 .1.1.2.1h-.2v-.1z" class="st5"/><path d="M3.2 13.1c0 .1 0 .1-.1.2.1-.1.1-.2.1-.2zM15.8 19c-.1 0 0-.1 0-.1v.1zM1.4 6.7v.1c0-.1-.1-.1-.1-.2.1 0 .1 0 .1.1z" class="st3"/><path d="M1.4 6.7s-.1 0-.1-.1v-.2c.1.2.1.2.1.3zM1.1 5.6c.1.1.1.1.1.2h-.1v-.2z" class="st5"/><path d="M3.1 13.3s0 .1-.1.1c.1 0 .1 0 .1-.1zM15.3 18.3s-.1-.1 0 0c-.1-.1 0 0 0 0zM1.5 15.7l-.1.1c0-.1.1-.1.1-.1z" class="st3"/><path d="M8 .4s0-.1 0 0c.1-.1.2-.1.3-.1h.5c.2 0 .4.1.5.1 0 0 .1 0 .1.1h.3l.1.1c.3.1.5.3.8.4l.2.2c.1.1.1.2.2.3h.1c-.1-.2-.1-.3-.1-.4 0 0 0-.1.1-.1.2-.1.4-.1.5-.2h.8c.4 0 .5.2.6.5.1.2.1.5.3.7.1.2.4.2.6.1.5-.4 1-.3 1.5.1l.1.1c.4.4.5.7.1 1.2-.3.4-.2.8.1.9.1 0 .3.1.4.1.5.1.7.3.7.8v.8c0 .4-.3.5-.5.6h-.1c-.7.1-.8.4-.4 1 .3.5.3.7-.1 1.2l-.1.1c-.5.6-.7.8-1.5.2-.1-.1-.4-.1-.5-.1-.1.1-.2.3-.2.5 0 .7 0 1.4-.1 2.2 0 .1 0 .2-.1.3-.2.4-.2.7 0 1.1.1.2.1.5.1.8h-5v-.8h3.8c.5 0 .8-.3.8-.8-.1-.1-.1-.2-.2-.2H8.3V.9C8.1.5 8 .4 8 .4z" class="st4"/><path d="M13.1 21.1c-.2.8-.9 1.2-1.6 1.5-1 .5-2 .8-3.2.9h-.2v-2.2c.8 0 1.6-.2 2.3-.5.1-.1.3-.2.4-.3.1-.1.1-.2-.1-.2-.9 0-1.7 0-2.6.1v-.9h.8c.2 0 .4-.1.3-.3-.3-1-.5-1.9-.7-2.9-.1-.2-.2-.3-.4-.2v-2h.2c.4-.1.5.1.7.4.2.4.5.6.8 1-.5.4-.6.9-.3 1.3.3.3.7.4 1.1.2.4-.2.5-.6.4-1.1.6 0 1.2 0 1.7-.2 0 0 .1 0 .1.1v.3c0 .4-.1.8.4 1-.1 0-.4-.1-.4.2v1.1c0 .1.1.1.1.2l.1.2c-.1.1-.2.2-.2.3v2c.1-.2.2-.1.3 0z" class="st6"/><path d="M11.1 15.8c.1.5 0 .9-.4 1.1-.4.2-.8.1-1.1-.2-.3-.4-.2-.9.3-1.3h.1l.6.3c0 .1-.1.3-.1.4.1 0 .2.1.3.1 0-.1.1-.3.1-.4h.2z" style="fill:#22db22"/><path d="M9 13.8h3.9c-.1.1-.2.2-.3.2H9.1c-.1-.1-.1-.2-.1-.2z" class="st8"/><path d="M9 13.8v.3c.1.5.4.9.7 1.2l.2.2h-.1c-.3-.3-.6-.6-.8-1-.2-.3-.4-.5-.7-.4h-.2v-.2c.3-.1.6-.1.9-.1z" class="st9"/><path d="M10.9 15.8c0 .1-.1.3-.1.4-.1 0-.2-.1-.3-.1 0-.1.1-.3.1-.4 0 0 .1 0 .3.1z" class="st1"/><path d="M12.4.8h-.8.8zM8.8.3h-.5.5zM10.8 1.1l-.2-.2h.5c-.1.1-.1.2-.1.2h-.2zM9.8.5 9.7.4c0 .1.1.1.1.1zM9.4.4s-.1 0-.1-.1l.1.1z" class="st5"/><path d="M3.5 12.7v-.8h4.7v1H3.8c-.1 0-.2-.1-.3-.1v-.1z" class="st6"/><path d="M3.5 12v.4c0-.1-.1-.1-.1-.2l-.1-.1v-.2s.1 0 .2.1z" class="st4"/><path d="M13.1 21.1c-.1-.1-.2-.1-.2-.2v-2c0-.1.1-.2.2-.3v2.5c0-.1 0-.1 0 0z" class="st2"/><path d="M13 18.4c0-.1-.1-.1-.1-.2v-1.1c0-.3.2-.2.4-.2.5.5.4 1.2-.1 1.5-.1.1-.1 0-.2 0zm.1-.7v.1c0 .1.1.2.1.3.1-.1.2-.2.2-.3v-.2c-.1-.1-.2-.3-.2-.4 0 .2-.1.3-.1.5z" class="st5"/><path d="M13 18.4c.1 0 .1.1.2.1l-.1.1c0-.1 0-.1-.1-.2z" class="st4"/><path d="M8.1 14.1v1.8c-.2.1-.4.2-.5.4-.3.5-.5 1.1-.6 1.7-.2.9.1 1.6 1.2 1.6v.8H5.5c.1.1.2.3.3.4.1.1.2.1.2.2.7.3 1.4.4 2.1.4v2.1c-1.5 0-2.9-.6-4.2-1.4-.3-.2-.7-.4-.6-.9v-5.6c.3.1.6.2 1 .3.2.1.4.1.6.1-.1.6.3 1 .8 1 .3 0 .6-.1.8-.4.2-.4.2-.7-.1-1l.3-.3c.2-.2.6-.4.6-.8V14.2c0-.1.1-.1.1-.2l.7.1z" style="fill:#fde0e0"/><path d="M3.4 15.6v5.6c-1.1 0-2-.5-2.5-1.4-.6-.9-.5-1.9.1-2.8.4-.6.7-1.1.9-1.8.2-.7.6-1.2 1.3-1.3-.3.3-.6.5-.7 1 0 .2 0 .2.2.2.3.1.5.2.7.4v.1zM3.3 13.7h4.1s0 .1-.1.1c-1.4 0-2.8-.1-4.2-.1.1.1.1.1.2 0z" class="st11"/><path d="M7.4 13.9s0-.1.1-.1v-.1h.6v.2h-.3c-.1 0-.2.1-.4.2 0 .1-.1.1-.1.2.1-.1.1-.2.1-.4zM3.5 12.7c0 .1 0 .1-.1.2.1-.1.1-.2.1-.2z" class="st4"/><path d="M7.5 13.8c-.1 0-.1 0 0 0-.1 0 0 0 0 0z" class="st6"/><path d="m1.2 6-.1-.1c.1 0 .1 0 .1.1z" class="st5"/><path d="M8.1 12.9v-1h4.4c.1 0 .1.1.2.2 0 .5-.2.8-.8.8-1.2.1-2.5.1-3.8 0z" class="st9"/><path d="M10.8 1.1h.2c0 .1.1.2.1.2H11c-.1 0-.1-.1-.2-.2z" class="st6"/><path d="M8.1 15.9c.2-.1.3 0 .4.2.2 1 .5 1.9.7 2.9.1.3-.1.3-.3.3h-.8v-3.4c0 .1 0 .1 0 0z" class="st0"/><path d="M8.1 20.3c.9 0 1.7 0 2.6-.1.2 0 .2.1.1.2s-.2.2-.4.3c-.7.4-1.5.5-2.3.5V20.3c0 .1 0 .1 0 0z" class="st2"/><path d="M8.1 20.8v.6c-.7 0-1.4-.1-2.1-.4-.1 0-.2-.1-.3-.2h2.4z" class="st12"/><path d="M8.1 15.9s0 .1 0 0c-.1.1-.3.2-.3.3-.2.6-.5 1.1-.7 1.7-.2.9.1 1.4 1 1.4v.2c-1 0-1.4-.6-1.2-1.6.2-.6.4-1.1.6-1.7l.6-.3z" class="st4"/><path d="M7.5 14.1c.1 0 .2-.1.3-.1h.3v.1h-.6z" class="st5"/><path d="M13.1 17.7c0-.2.1-.3.1-.5.1.1.2.3.2.4v.2c-.1.1-.1.2-.2.3 0-.1-.1-.2-.1-.3v-.1z" class="st3"/><path d="M7.4 13.9v.7c-.3.3-.6.6-1 .9-.4.1-.9.2-1.3.3h-.4c-.4-.1-.8-.2-1.2-.4-.2-.1-.5-.3-.7-.4-.1-.1-.2 0-.2-.2.1-.5.4-.7.7-1 1.3.1 2.7.1 4.1.1z" class="st12"/><path d="M4.9 15.8c.4-.1.9-.2 1.3-.3l.1.1c.2.3.3.7.1 1-.2.3-.4.5-.8.4-.5 0-.8-.5-.8-1 .1-.1.1-.1.1-.2zm1.6.1c-.2-.1-.3-.3-.4-.3-.1 0-.2.2-.2.3 0 .1.2.2.3.2 0 .1.1 0 .3-.2z" class="st8"/><path d="M5.8 20.8c-.2-.1-.3-.3-.4-.4h2.7v.1H6.2c-.2-.1-.4-.1-.4.3z" class="st4"/><path d="M4.9 15.8c0 .1 0 .1-.1.2-.2 0-.4-.1-.5-.1-.3-.1-.6-.2-1-.3v-.2c.4.1.8.2 1.2.4h.4z" class="st5"/><path d="m6.4 15.6-.1-.1c.3-.3.6-.6 1-.9 0 .4-.4.6-.6.8-.2 0-.2.1-.3.2zM7.3 14.4zM7.2 14.5c.1 0 .1 0 0 0 .1 0 .1 0 0 0z" class="st4"/><path d="M8.1 19.3c-.9 0-1.2-.5-1-1.4.2-.6.4-1.1.7-1.7 0-.1.2-.2.3-.2v3.3z" style="fill:#fecece"/><path d="M5.8 20.8c-.1-.3.2-.3.4-.3h1.9v.2H6.5c-.1 0-.2.1-.3.2-.1-.1-.2-.1-.4-.1z" class="st3"/><path d="M6.2 20.8c.1-.1.2-.2.3-.2h1.6v.2H6.2zM6.5 15.9c-.2.1-.3.3-.4.3-.1 0-.3-.2-.3-.2 0-.1.2-.2.2-.3.2 0 .3.1.5.2z" class="st1"/></svg>