<?xml version="1.0" encoding="UTF-8"?>
<svg id="Capa_1" data-name="Capa 1" xmlns="http://www.w3.org/2000/svg" viewBox="0 0 119.61 119.66">
  <defs>
    <style>
      .cls-1 {
        fill: #017bcf;
      }

      .cls-2 {
        fill: #fdfefe;
      }

      .cls-3 {
        fill: #189dfb;
      }
    </style>
  </defs>
  <path class="cls-1" d="M59.98,119.66C26.62,119.51-.02,92.97,0,59.78,.02,26.61,26.61,.01,59.78,0c33.25-.01,59.89,26.66,59.82,59.86-.06,34.09-27.5,59.68-59.63,59.81Zm48.56-43.33c1.21-3.04,1.83-6.23,2.3-9.46,.75-5.08,.69-10.16-.11-15.2-.96-6.06-2.97-11.8-5.99-17.14-3.11-5.48-7.04-10.31-11.91-14.33-4.42-3.64-9.3-6.53-14.67-8.58-4.63-1.77-9.42-2.94-14.35-3.25-6.05-.38-12.05,.09-17.94,1.81-11.28,3.29-20.47,9.55-27.48,18.97-5.23,7.03-8.42,14.9-9.63,23.59-.71,5.08-.69,10.16,.11,15.2,.93,5.81,2.81,11.33,5.66,16.5,3.46,6.28,7.97,11.66,13.65,16.07,5.61,4.35,11.87,7.41,18.72,9.21,3.14,.82,6.34,1.42,9.61,1.51,5.65,.45,11.22-.08,16.68-1.6,13.35-3.72,23.62-11.54,30.87-23.32,1.92-3.12,3.51-6.42,4.47-9.98Z"/>
  <path class="cls-3" d="M56.52,111.24c-3.27-.09-6.46-.69-9.61-1.51-6.86-1.8-13.11-4.85-18.72-9.21-5.68-4.4-10.19-9.79-13.65-16.07-2.85-5.17-4.73-10.69-5.66-16.5-.8-5.04-.82-10.11-.11-15.2,1.21-8.69,4.4-16.57,9.63-23.59,7.01-9.41,16.2-15.68,27.48-18.97,5.89-1.72,11.89-2.19,17.94-1.81,4.93,.31,9.71,1.49,14.35,3.25,5.37,2.05,10.25,4.93,14.67,8.58,4.87,4.01,8.81,8.84,11.91,14.33,3.03,5.34,5.04,11.08,5.99,17.14,.8,5.04,.86,10.12,.11,15.2-.48,3.23-1.09,6.41-2.3,9.46-2.75-2.62-5.72-4.97-8.93-6.99-.51-.32-.97-.68-1.37-1.14-4.51-5.26-8.1-11.04-10.19-17.69-1.87-5.94-5.93-9.52-11.92-10.86-5.57-1.25-11.09-.83-16.5,.97-2.82,.93-5.52,2.3-7.13,4.78-1.46,2.25-3.33,2.83-5.73,3.21-7.82,1.23-15.23,3.69-21.9,8.09-1.47,.97-2.88,2.04-4.1,3.32,.29,.34,.55,.25,.77,.26,8.78,.28,17.53-.17,26.27-1.11,.78-.08,1.59-.34,2.34,.11,3.21,1.93,5.7,4.48,6.86,8.12,.69,2.18,1.13,4.35-.96,6.13-.23,.2-.35,.53-.51,.8-2.98,5.18-3.52,10.86-3.29,16.65,.28,6.98,1.92,13.7,4.26,20.26Z"/>
  <path class="cls-2" d="M56.52,111.24c-2.35-6.56-3.98-13.28-4.26-20.26-.23-5.79,.31-11.47,3.29-16.65,.16-.28,.28-.61,.51-.8,2.09-1.77,1.65-3.95,.96-6.13-1.16-3.64-3.65-6.2-6.86-8.12-.75-.45-1.57-.19-2.34-.11-8.73,.93-17.48,1.39-26.27,1.11-.22,0-.48,.08-.77-.26,1.22-1.28,2.63-2.35,4.1-3.32,6.67-4.4,14.08-6.86,21.9-8.09,2.4-.38,4.27-.96,5.73-3.21,1.61-2.48,4.31-3.85,7.13-4.78,5.41-1.79,10.93-2.22,16.5-.97,5.99,1.35,10.05,4.92,11.92,10.86,2.09,6.64,5.68,12.43,10.19,17.69,.4,.46,.86,.82,1.37,1.14,3.22,2.02,6.18,4.37,8.93,6.99-.96,3.56-2.55,6.86-4.47,9.98-7.25,11.78-17.52,19.61-30.87,23.32-5.46,1.52-11.03,2.05-16.68,1.6Z"/>
</svg>