<?xml version="1.0" encoding="utf-8"?>
<!-- Generator: Adobe Illustrator 27.0.0, SVG Export Plug-In . SVG Version: 6.00 Build 0)  -->
<svg version="1.1" id="Capa_1" xmlns="http://www.w3.org/2000/svg" xmlns:xlink="http://www.w3.org/1999/xlink" x="0px" y="0px"
	 viewBox="0 0 198.3 82.1" style="enable-background:new 0 0 198.3 82.1;" xml:space="preserve">
<style type="text/css">
	.st0{fill:#FFFFFF;}
	.st1{fill:none;stroke:#FFFFFF;stroke-width:1.66;}
</style>
<g>
	<path class="st0" d="M123.1,41.2c0.7,0.1,1.4,0.2,2.1,0.4c2.6,0.6,4.3,2.2,4.8,4.9c0.7,3.5,0.6,6.9,0.1,10.4
		c-0.5,3.4-2.5,5.6-5.8,6.4c-2.7,0.6-5.5,1.1-8.3,1.2c-7.8,0.1-15.7,0.1-23.5,0c-2,0-4.1-0.4-6-0.8c-4.3-0.9-6.8-3.6-7.2-8
		c-0.2-1.8,0-3.6,0-5.4c1.8,0,3.5,0,5.4,0c0.1,1.5,0.2,3,0.4,4.4c0.3,2.5,1.8,4,4.3,4.5c1.2,0.2,2.4,0.4,3.6,0.4
		c8.1,0,16.2,0,24.3,0c1.3,0,2.7-0.2,4-0.5c1.9-0.4,3.2-1.7,3.3-3.6c0.2-2.4,0.3-4.9,0-7.3c-0.3-3.2-1.8-4.4-5-4.4
		c-4.1-0.1-8.2,0-12.4,0c-2.7,0-5.4,0-8.3,0c0-1.6,0-3.2,0-5c0.4,0,0.8,0,1.2,0c5.5,0,11.1,0,16.6,0c1.4,0,2.8-0.2,4.2-0.5
		c1.7-0.4,2.9-1.5,2.9-3.3c0.1-2.3,0.1-4.6,0-6.9c-0.2-2.2-1.5-3.5-3.8-3.9c-1.5-0.3-3.1-0.4-4.6-0.4c-6.8,0-13.7-0.1-20.5,0
		c-2,0-4.1,0.3-6,0.8c-2.6,0.6-3.7,2.2-3.7,4.9c0,1,0,2.1,0,3.2c-1.9,0-3.7,0-5.7,0c-0.1-2.5-0.2-4.9,0.6-7.3c1.2-3.8,4-5.5,7.7-6.2
		c1.2-0.2,2.4-0.3,3.6-0.3c8.6,0,17.3,0,25.9,0.1c2.1,0,4.1,0.4,6.1,1c3.6,1,5.8,3.5,6.1,7.2c0.3,2.7,0.1,5.5,0,8.3
		c-0.2,2.8-1.8,4.6-4.6,5.3c-0.6,0.2-1.2,0.3-1.8,0.5C123.1,41.1,123.1,41.1,123.1,41.2z"/>
	<path class="st0" d="M166.1,57.6c3.9-6.2,7.7-12.3,11.5-18.3c3.1-4.9,6.1-9.8,9.2-14.7c0.4-0.6,0.8-0.9,1.5-0.8
		c2.2,0.1,4.3,0,6.6,0c0,13.4,0,26.8,0,40.2c-1.5,0-3.1,0-4.8,0c0-11.7,0-23.3,0-34.9c-0.1,0-0.2,0-0.2-0.1
		c-0.2,0.2-0.4,0.4-0.5,0.7c-7,11.1-13.9,22.2-20.8,33.4c-0.5,0.7-1,0.9-1.8,1c-1.7,0.2-2.7-0.5-3.6-2c-6.6-10.7-13.3-21.3-19.9-32
		c-0.2-0.4-0.5-0.8-1-1.1c0,11.6,0,23.3,0,35c-1.7,0-3.2,0-4.8,0c0-13.3,0-26.7,0-40.2c2.4,0,4.8,0,7.2,0c0.3,0,0.7,0.6,0.9,1
		c6.5,10.4,13.1,20.8,19.6,31.2C165.4,56.5,165.7,56.9,166.1,57.6z"/>
	<path class="st0" d="M64.7,33.8c-1.6,0-3.1,0-4.7,0c0-1.8,0-3.5,0-5.3c3.6,0,7.2,0,10.9,0c0,11.8,0,23.6,0,35.5c-2,0-4.1,0-6.2,0
		C64.7,53.9,64.7,43.9,64.7,33.8z"/>
	<path class="st0" d="M72.1,18.8c0,2.2-1.7,3.9-3.8,3.9c-2.2,0-4-1.8-4-3.9c0-2.2,1.8-3.9,3.9-3.9C70.3,15,72.1,16.7,72.1,18.8z"/>
</g>
<g>
	<path class="st1" d="M45.8,31.6c0-12.4-10.1-22.5-22.5-22.5S0.8,19.2,0.8,31.6s10.1,22.5,22.5,22.5S45.8,44.1,45.8,31.6z"/>
	<path class="st1" d="M23.3,16.1c-8.6,0-15.6,7-15.6,15.6s7,15.6,15.6,15.6s15.6-7,15.6-15.6H23.3V16.1z"/>
	<line class="st1" x1="23.2" y1="9.4" x2="23.2" y2="0"/>
	<line class="st1" x1="45.8" y1="31.7" x2="56.7" y2="31.7"/>
</g>
</svg>
