<?xml version="1.0" encoding="utf-8"?>
<!-- Generator: Adobe Illustrator 27.0.0, SVG Export Plug-In . SVG Version: 6.00 Build 0)  -->
<svg version="1.1" id="Capa_1" xmlns="http://www.w3.org/2000/svg" xmlns:xlink="http://www.w3.org/1999/xlink" x="0px" y="0px"
	 viewBox="0 0 227.9 207.6" style="enable-background:new 0 0 227.9 207.6;" xml:space="preserve">
<style type="text/css">
	.st0{fill:#4499DD;stroke:#CCCCCC;stroke-width:4.096;stroke-linecap:round;stroke-linejoin:round;stroke-miterlimit:32;}
	.st1{fill:url(#SVGID_1_);stroke:#CCCCCC;stroke-width:4.096;stroke-linecap:round;stroke-linejoin:round;stroke-miterlimit:32;}
	
		.st2{fill:url(#SVGID_00000121263466185626599330000005062457207533490579_);stroke:#CCCCCC;stroke-width:4.096;stroke-linecap:round;stroke-linejoin:round;stroke-miterlimit:32;}
	.st3{fill:#4499DD;stroke:#000000;stroke-width:0.768;stroke-miterlimit:32;}
	
		.st4{fill:url(#SVGID_00000032643375818112073630000009013341779943294389_);stroke:#000000;stroke-width:0.768;stroke-miterlimit:32;}
	
		.st5{fill:url(#SVGID_00000024708990746789552060000018186713974095808932_);stroke:#000000;stroke-width:0.768;stroke-miterlimit:32;}
</style>
<g id="SVGRepo_bgCarrier">
</g>
<g id="SVGRepo_tracerCarrier">
	<path class="st0" d="M2,116.1l63.8-25.8c6.5-8.6,13.8-16.5,21.8-23.6c5.3-2.8,15.2-1.3,33.4-23.8c17.6-22,23.2-40.8,31.4-40.8
		c13,0,22.6,28.2,37.2,70.8c10.4,32.6,22.6,64.5,36.5,95.8c-15.2-14.2-28.2-29.4-43-29c-13.8,0.3-29,16.6-45.8,37.6
		c-13.3,16.8-30.9,28.3-37.8,28.1c0,0-17.8-50.2-32.6-58.4c-6.3-2.6-13.4-2-19.1,1.6L2,116.1L2,116.1z"/>
	
		<linearGradient id="SVGID_1_" gradientUnits="userSpaceOnUse" x1="-724.3239" y1="679.4488" x2="-726.1139" y2="673.6688" gradientTransform="matrix(8 0 0 8 5915.0146 -5336.9341)">
		<stop  offset="0" style="stop-color:#551122"/>
		<stop  offset="0.23" style="stop-color:#552233"/>
		<stop  offset="0.36" style="stop-color:#553344"/>
		<stop  offset="0.51" style="stop-color:#664455"/>
		<stop  offset="0.66" style="stop-color:#556688"/>
		<stop  offset="0.84" style="stop-color:#2299DD"/>
	</linearGradient>
	<path class="st1" d="M144.4,7.9c-5.4,7.2-11.8,20.4-23.5,35c-18.2,22.6-28,21-33.4,23.8c-8,7.1-15.3,15-21.8,23.6l26.4,19.3
		c22.4-30.6,34.4-63.7,43.8-85.1C138.3,18.7,141.1,13.2,144.4,7.9z"/>
	
		<linearGradient id="SVGID_00000142160595786339263620000017345706467801685378_" gradientUnits="userSpaceOnUse" x1="-711.4171" y1="574.347" x2="-729.4171" y2="578.767" gradientTransform="matrix(8 0 0 -8 5915.0146 4722.3438)">
		<stop  offset="8.100000e-02" style="stop-color:#CC3333"/>
		<stop  offset="0.189" style="stop-color:#DE5239"/>
		<stop  offset="0.313" style="stop-color:#F06E3E"/>
		<stop  offset="0.421" style="stop-color:#FA8042"/>
		<stop  offset="0.5" style="stop-color:#FE8643"/>
		<stop  offset="0.58" style="stop-color:#FA7F42"/>
		<stop  offset="0.696" style="stop-color:#EF6C3E"/>
		<stop  offset="0.833" style="stop-color:#DC4C37"/>
		<stop  offset="0.916" style="stop-color:#CF3633"/>
	</linearGradient>
	
		<path style="fill:url(#SVGID_00000142160595786339263620000017345706467801685378_);stroke:#CCCCCC;stroke-width:4.096;stroke-linecap:round;stroke-linejoin:round;stroke-miterlimit:32;" d="
		M152.4,2.1C135,2.1,123,93.9,58.6,145.2c18.1-3,33.8,41.9,41,60.1c32-5.4,57.6-66.6,83.4-65.7c14.8,0.6,27.8,14.9,43,29
		C191.3,95.7,175,2.1,152.4,2.1z"/>
</g>
<g id="SVGRepo_iconCarrier">
	<path class="st3" d="M2,116.1l63.8-25.8c6.5-8.6,13.8-16.5,21.8-23.6c5.3-2.8,15.2-1.3,33.4-23.8c17.6-22,23.2-40.8,31.4-40.8
		c13,0,22.6,28.2,37.2,70.8c10.4,32.6,22.6,64.5,36.5,95.8c-15.2-14.2-28.2-29.4-43-29c-13.8,0.3-29,16.6-45.8,37.6
		c-13.3,16.8-30.9,28.3-37.8,28.1c0,0-17.8-50.2-32.6-58.4c-6.3-2.6-13.4-2-19.1,1.6L2,116.1L2,116.1z"/>
	
		<linearGradient id="SVGID_00000104698893770327900130000014958095161284272788_" gradientUnits="userSpaceOnUse" x1="-724.3239" y1="679.4488" x2="-726.1139" y2="673.6688" gradientTransform="matrix(8 0 0 8 5915.0146 -5336.9341)">
		<stop  offset="0" style="stop-color:#551122"/>
		<stop  offset="0.23" style="stop-color:#552233"/>
		<stop  offset="0.36" style="stop-color:#553344"/>
		<stop  offset="0.51" style="stop-color:#664455"/>
		<stop  offset="0.66" style="stop-color:#556688"/>
		<stop  offset="0.84" style="stop-color:#2299DD"/>
	</linearGradient>
	
		<path style="fill:url(#SVGID_00000104698893770327900130000014958095161284272788_);stroke:#000000;stroke-width:0.768;stroke-miterlimit:32;" d="
		M144.4,7.9c-5.4,7.2-11.8,20.4-23.5,35c-18.2,22.6-28,21-33.4,23.8c-8,7.1-15.3,15-21.8,23.6l26.4,19.3
		c22.4-30.6,34.4-63.7,43.8-85.1C138.3,18.7,141.1,13.2,144.4,7.9z"/>
	
		<linearGradient id="SVGID_00000109017064244726704690000004196592579153354368_" gradientUnits="userSpaceOnUse" x1="-711.4171" y1="574.347" x2="-729.4171" y2="578.767" gradientTransform="matrix(8 0 0 -8 5915.0146 4722.3438)">
		<stop  offset="8.100000e-02" style="stop-color:#CC3333"/>
		<stop  offset="0.189" style="stop-color:#DE5239"/>
		<stop  offset="0.313" style="stop-color:#F06E3E"/>
		<stop  offset="0.421" style="stop-color:#FA8042"/>
		<stop  offset="0.5" style="stop-color:#FE8643"/>
		<stop  offset="0.58" style="stop-color:#FA7F42"/>
		<stop  offset="0.696" style="stop-color:#EF6C3E"/>
		<stop  offset="0.833" style="stop-color:#DC4C37"/>
		<stop  offset="0.916" style="stop-color:#CF3633"/>
	</linearGradient>
	
		<path style="fill:url(#SVGID_00000109017064244726704690000004196592579153354368_);stroke:#000000;stroke-width:0.768;stroke-miterlimit:32;" d="
		M152.4,2.1C135,2.1,123,93.9,58.6,145.2c18.1-3,33.8,41.9,41,60.1c32-5.4,57.6-66.6,83.4-65.7c14.8,0.6,27.8,14.9,43,29
		C191.3,95.7,175,2.1,152.4,2.1z"/>
</g>
</svg>
