<?xml version="1.0" encoding="UTF-8"?><svg id="Capa_1" xmlns="http://www.w3.org/2000/svg" viewBox="0 0 962.36 124.45"><defs><style>.cls-1{fill:#fff;}</style></defs><g><path class="cls-1" d="M962.36,40.42c-.96,3.03-1.92,6.07-2.93,9.25-4.17,.25-8.7-3.32-12.69,.68,.63,2.82,2.83,4.05,4.52,5.66,5.01,4.78,5.41,9.19,1.24,14.81-2.93,3.95-7.05,5.96-11.74,6.99-7.01,1.53-13.97,1.14-21.35-.48,1.06-4.08,2.05-7.93,3.09-11.93,4.75,.69,9.16,3.95,13.9,.85,.04-3.14-2.33-4.51-3.96-6.26-6.48-6.97-5.57-13.89,2.73-18.76,8.66-5.09,17.9-4.19,27.19-2.24v1.43Z"/><path class="cls-1" d="M372.25,56.62c-4.22,7.06-8.44,14.13-12.55,21h-16c2.27-13.14,4.5-26.05,6.77-39.16h13.28c-1.38,6.9-2.74,13.71-4.41,22.1,5.03-8.3,9.22-15.22,13.45-22.19h15.18c-1.28,7.31-2.52,14.4-4.03,23.01,5.13-8.49,9.49-15.71,13.9-23.01h12.93c-8.42,13.25-16.63,26.17-24.93,39.22h-16.7c.37-7.2,3.49-13.78,3.03-20.88,0,0,.23,.06,.23,.06,0,0-.16-.16-.16-.16Z"/><path class="cls-1" d="M803.06,77.66c5.25-13.16,10.41-26.1,15.65-39.22h18.15c1.07,6.22,2.14,12.48,3.43,20.03,3.01-7.46,5.54-13.73,8.08-20.03h13.25c-5.17,13.19-10.25,26.15-15.39,39.26h-17.67c-1.01-6.27-2-12.47-3.25-20.29-3,7.62-5.47,13.9-7.98,20.26h-14.27Z"/><path class="cls-1" d="M771.27,78.62c-5.43-.23-12.4-.38-16.07-7.14-3.64-6.72-.65-13.1,2.81-18.93,7.61-12.83,26.54-18.98,40.51-13.42,6.45,2.57,9.09,7.95,7.44,15.14-3.4,14.8-16.52,24.35-34.7,24.35Zm5.49-11.01c5.62,0,10.42-4.22,12.28-10.79,1.66-5.88-1.23-9.3-7.2-8.27-6.4,1.1-9.41,5.69-11.04,11.41-1.37,4.83,.9,7.65,5.96,7.65Z"/><path class="cls-1" d="M307.89,78.62c-17.64-.03-23.56-10.31-14.74-25.58,7.57-13.1,26.83-19.63,40.97-13.87,6.64,2.7,9.14,8.28,7.13,15.9-3.83,14.52-16.65,23.57-33.36,23.55Zm4.49-11.01c5.91-.08,11.03-4.98,12.47-11.95,.94-4.52-1.2-7.15-5.88-7.23-5.76-.09-10.85,4.47-12.65,11.32-1.34,5.12,.83,7.93,6.06,7.86Z"/><path class="cls-1" d="M719.83,77.67h-15.09c5.65-13.04,10.69-26.01,15.42-39.24,9.63,0,19.18-.25,28.72,.1,4.99,.18,7.22,3.89,6.11,8.89-1.45,6.5-5.79,10.51-12.26,13.18v17.05h-16.24c.9-7.58,1.78-14.96,2.67-22.39,4.03-.63,8.95,.71,9.46-5.36-2.43-2.1-4.96-1.56-7.91-.85-3.58,9.43-7.22,18.99-10.88,28.63Z"/><path class="cls-1" d="M455.43,38.34c9.22,0,18.32-.18,27.41,.06,5.91,.16,8.32,3.66,6.99,9.42-1.47,6.38-5.89,10.16-12.04,12.78v16.96h-16.3c.89-7.52,1.75-14.82,2.63-22.21,3.87-.86,9.19,.81,9.36-5.74-2.44-1.66-4.87-1.23-7.75-.67-3.6,9.46-7.23,19.01-10.91,28.71h-14.82c5.15-13.11,10.23-26.06,15.43-39.31Z"/><path class="cls-1" d="M449.06,38.39c-1.36,3.55-2.58,6.74-3.82,9.98h-19.34c-.56,1.29-1.11,2.58-1.85,4.3h16.18c-1.39,3.65-2.61,6.85-3.86,10.15h-15.82c-1.16,1.41-1.9,2.82-1.88,4.71h18.84c-1.34,3.5-2.59,6.77-3.86,10.1h-34.88c5.62-13.09,10.72-26.04,15.41-39.23h34.88Z"/><path class="cls-1" d="M504.84,77.62c5.62-12.98,10.68-25.96,15.43-39.22h34.84c-1.3,3.44-2.51,6.64-3.77,9.98h-19.36c-.53,1.28-1.1,2.65-1.81,4.36h16.14c-1.36,3.57-2.58,6.75-3.84,10.05h-16.14c-.66,1.53-1.29,3-2.03,4.74h19.29c-1.32,3.47-2.55,6.71-3.84,10.08h-34.9Z"/><path class="cls-1" d="M609.49,48.34c-.58,1.45-1.1,2.75-1.75,4.38h16.14c-1.39,3.58-2.65,6.83-3.94,10.16h-16.17c-.62,1.48-1.2,2.86-1.94,4.62h19.29c-1.36,3.58-2.57,6.76-3.83,10.09h-34.64c5.14-13.08,10.22-26.02,15.39-39.18h34.63c-1.3,3.41-2.52,6.6-3.79,9.93h-19.39Z"/><path class="cls-1" d="M258.88,38.39c8.61,0,17.21-.19,25.8,.08,4.34,.14,6.77,2.81,6.44,7.36-.82,11.4-12.54,20.23-24.45,18.01,.34-3.06,.68-6.16,1.03-9.37,3.62-.51,7.5-.52,6.96-5.55-1.78-1.13-3.43-.64-5.39-.56-3.62,9.71-7.23,19.39-10.91,29.25h-14.87c5.14-13.09,10.24-26.1,15.39-39.22Z"/><path class="cls-1" d="M673.31,38.74c-1.25,3.72-2.37,7.08-3.55,10.6-4.65-.77-9.12-1.62-13.63-.34-5.53,1.58-9.09,5.1-10.62,10.61-1.18,4.26,.6,6.74,4.88,7.35,4.41,.62,8.77-.04,13.63-1.26-2.04,4.26-3.83,7.97-5.66,11.79-6.95,1.35-13.83,1.9-20.69,.21-7.46-1.84-10.63-6.95-9.25-14.45,2.6-14.13,13.8-24.29,28.46-25.61,5.36-.48,10.75-.44,16.44,1.1Z"/><path class="cls-1" d="M918.03,65.83c-2,4.18-3.79,7.92-5.59,11.67-6.8,1.3-13.45,1.86-20.11,.33-8.11-1.87-11.24-6.82-9.79-15.09,2.35-13.39,13.88-23.71,28.26-25.08,5.37-.51,10.76-.46,16.53,1.06-1.15,3.54-2.26,6.98-3.44,10.62-4.65-.75-9.12-1.61-13.63-.35-5.12,1.43-8.61,4.56-10.35,9.56-1.81,5.21,.11,8.06,5.6,8.54,4.07,.35,8.06-.32,12.53-1.26Z"/><path class="cls-1" d="M684.59,49.14h-11.32c1.39-3.81,2.66-7.27,3.95-10.78h38.35c-1.37,3.68-2.65,7.1-3.99,10.69h-11.61c-3.64,9.51-7.26,18.95-10.94,28.55h-15.68c3.89-9.39,8.07-18.46,11.24-28.46Z"/><path class="cls-1" d="M578.5,77.69h-32.25c5.14-13.18,10.22-26.19,15.34-39.32h15.87c-3.71,9.43-7.36,18.67-11.15,28.3h16.53c-1.49,3.79-2.86,7.27-4.33,11.02Z"/><path class="cls-1" d="M869.15,38.38h15.93c-5.15,13.16-10.23,26.12-15.37,39.25h-15.99c5.65-13.01,10.7-26,15.43-39.25Z"/></g><g><path class="cls-1" d="M59.59,106.88c-19.83,.95-39.61,3.35-59.59,7.3,.99-10.02,3.7-19.1,7.83-27.73,11.85-24.74,30.08-43.76,53.2-58.27,7.59-4.76,16.43-4.98,24.98-5.62,12.8-.96,25.62-.92,38.35,1.15,2.19,.36,4.53,.54,6.71,2.71-33.23,18.39-60.98,41.52-71.49,80.46Z"/><path class="cls-1" d="M90.55,75.07c1.39-2.3,2.29-3.96,3.34-5.52,10.86-15.97,25.17-28.04,42.12-37.13,3.72-2,7.46-2.66,11.72-1.55,13.12,3.43,25.51,8.3,36,17.11,6.89,5.78,6.88,9.52,.02,15.46-7.05,6.1-15.8,8.3-24.68,9.92-22.46,4.11-45.04,3.22-68.52,1.7Z"/><path class="cls-1" d="M115.43,.18c9.31-.47,18.31,1.74,27.33,3.44,18.28,3.44,36.14,8.34,53,16.38,8.69,4.14,16.85,9.11,23.58,16.11,11.58,12.05,13.67,26.74,5.88,41.52-5.52,10.47-14.13,18-23.99,24.17-20.04,12.56-42.28,18.78-65.44,22.29-2,.3-4.01,.54-6.22,.16,.98-.31,1.96-.61,2.92-.94,20.75-7.17,40.07-17,57.19-30.85,6.92-5.6,13.1-11.92,17.38-19.86,6.15-11.41,5.12-22.31-3.1-32.34-5.86-7.16-13.38-12.26-21.43-16.6C162.03,12.61,139.85,6.24,117.39,.68c-.69-.17-1.37-.41-2.05-.62,0,0,.08,.11,.08,.11Z"/><path class="cls-1" d="M115.34,.06l.16-.06s-.06,.18-.06,.18c0,0-.09-.12-.09-.12Z"/></g></svg>