<?xml version="1.0" encoding="utf-8"?>
<!-- Generator: Adobe Illustrator 27.0.0, SVG Export Plug-In . SVG Version: 6.00 Build 0)  -->
<svg version="1.1" id="Capa_1" xmlns="http://www.w3.org/2000/svg" xmlns:xlink="http://www.w3.org/1999/xlink" x="0px" y="0px"
	 viewBox="0 0 63.3 63.3" style="enable-background:new 0 0 63.3 63.3;" xml:space="preserve">
<style type="text/css">
	.st0{fill-rule:evenodd;clip-rule:evenodd;fill:#FFFFFF;}
	.st1{fill:#FFFFFF;}
</style>
<g>
	<path class="st0" d="M20.5,21c-0.2-0.4,0.1-1,0.1-1c0.3-0.1,0.9,0,1.1,0.4c0.2,0.5,0,0.8-0.5,1.2C21.2,21.5,20.9,21.4,20.5,21z"/>
	<polygon class="st0" points="36,47.5 32.8,50 32.8,23.7 36,23.7 	"/>
	<path class="st0" d="M38.1,45.2V23.7h2.6v16.4C40.2,41.6,39.4,43.3,38.1,45.2z"/>
	<polygon class="st0" points="27.5,47.7 30.8,50.3 30.8,23.7 27.5,23.7 	"/>
	<path class="st0" d="M25.7,45.9V23.7h-2.9v17.5C22.9,42.4,25,45.3,25.7,45.9z"/>
	<path class="st1" d="M31.6,53.6c-12.1,0-22-9.9-22-22s9.9-22,22-22s22,9.9,22,22C53.6,43.8,43.8,53.6,31.6,53.6v0.8
		c12.6,0,22.8-10.2,22.8-22.8S44.2,8.8,31.6,8.8C19.1,8.9,8.9,19.1,8.9,31.6c0,12.6,10.2,22.8,22.8,22.8L31.6,53.6L31.6,53.6z"/>
	<path class="st1" d="M31.6,62.3C14.7,62.3,1,48.5,1,31.6S14.7,1,31.6,1s30.6,13.7,30.6,30.6C62.3,48.5,48.5,62.3,31.6,62.3v1
		c17.4,0,31.6-14.2,31.6-31.6C63.3,14.2,49.1,0,31.6,0C14.2,0,0,14.2,0,31.6s14.2,31.6,31.6,31.6V62.3z"/>
	<path class="st0" d="M5.6,40.6c0.7,0.7,1,1.1,1.4,2c0.3,0.8,0.4,1.3,0.5,2.2L9,44.1c-0.6-0.6-0.9-1-1.3-1.8
		c-0.4-0.9-0.5-1.4-0.6-2.4L5.6,40.6z"/>
	<path class="st0" d="M5.5,44.1c0.7-0.7,1.1-1,2-1.4c0.8-0.3,1.3-0.4,2.2-0.5L9,40.6c-0.6,0.6-1,0.9-1.8,1.3
		c-0.9,0.4-1.4,0.5-2.4,0.6L5.5,44.1z"/>
	<path class="st0" d="M57.7,40.6c-0.7,0.7-1,1.1-1.4,2c-0.3,0.8-0.4,1.3-0.5,2.2l-1.6-0.7c0.6-0.6,0.9-1,1.3-1.8
		c0.4-0.9,0.5-1.4,0.6-2.4L57.7,40.6z"/>
	<path class="st0" d="M57.8,44.1c-0.7-0.7-1.1-1.1-2-1.4c-0.8-0.3-1.3-0.4-2.2-0.5l0.7-1.6c0.6,0.6,1,0.9,1.8,1.3
		c0.9,0.4,1.4,0.5,2.4,0.6L57.8,44.1z"/>
	<path class="st0" d="M19.3,53.6c0.4-0.2,0.6,0,0.7-0.2c0.1-0.1,0-0.1-0.1-0.2c-0.2-0.1-0.3-0.2-0.5-0.3s-0.3-0.3-0.4-0.4
		c-0.1-0.1-0.2-0.2-0.3-0.1c-0.2,0.2,0.6,0.4,0.1,1c-0.1,0.1-0.2,0.3-0.7,0.5L16,55c0,0-0.1,0.1-0.2,0.1c0,0,0-0.1,0-0.2l0.7-2.4
		c0.1-0.5,0.3-0.8,0.4-1c0.2-0.2,0.4,0.1,0.6-0.1c0.1-0.1,0-0.1-0.1-0.2c-0.1-0.1-0.3-0.2-0.6-0.4c-0.2-0.1-0.4-0.3-0.5-0.5
		c-0.1-0.1-0.2-0.2-0.3-0.1v0.1c0.2,0.2,0.2,0.4,0.1,0.6l-1.3,4.4c-0.1,0.3-0.1,0.4,0,0.5c0.1,0,0.1,0,0.3-0.1L19.3,53.6z"/>
	<path class="st0" d="M24.8,55.8c0.1-0.5,0.5-0.2,0.6-0.4c0-0.1,0-0.1-0.2-0.1c-0.1,0-0.2,0-0.8-0.2c-0.3-0.1-0.6-0.2-0.9-0.3
		c-0.1,0-0.2,0-0.2,0.1c-0.1,0.2,0.7,0.2,0.6,0.8L23.1,59c-0.2,0.9-0.6,0.4-0.7,0.7c0,0,0,0.1,0.1,0.1c0.4,0.1,0.7,0.1,0.9,0.2
		c0.3,0.1,0.7,0.2,1.7,0.5c0.5,0.1,1.1-0.3,1.2-0.9c0-0.1,0-0.2,0-0.2c-0.3-0.1-0.4,0.9-2.1,0.5c-0.5-0.1-0.4-0.4-0.3-0.8L24.8,55.8
		z"/>
	<path class="st0" d="M28.8,56.7c0-0.5,0.1-0.5,0.9-0.4c1.3,0.1,0.7,0.9,1.1,0.9c0.2,0,0.1-0.2,0.1-0.3v-0.7c0-0.1,0-0.1-0.1-0.1
		c-0.6,0-1.1,0-1.6-0.1c-1.1-0.1-1.5-0.1-1.8-0.2c-0.1,0-0.2,0-0.2,0.1c0,0.3,0.8,0.1,0.7,0.8L27.7,60c-0.1,0.9-0.6,0.5-0.6,0.8
		c0,0,0,0.1,0.1,0.1c0.4,0,0.7,0,0.9,0c0.3,0,0.8,0.1,1.8,0.2c0.6,0,1-0.5,1.1-1.1c0-0.1,0-0.2-0.1-0.2c-0.3,0-0.2,0.9-1.9,0.8
		c-0.5,0-0.5-0.3-0.4-0.7l0.1-0.9c0-0.4,0-0.5,0.3-0.5h0.5c0.7,0,0.5,0.8,0.7,0.8s0.1-0.3,0.1-0.3v-1.3c0-0.2-0.1-0.2-0.1-0.2
		c-0.1,0-0.2,0.7-0.8,0.6H29c-0.3,0-0.3-0.1-0.3-0.4L28.8,56.7z"/>
	<path class="st0" d="M32.5,60.2c0.1,0.7-0.6,0.7-0.6,1c0,0.1,0.1,0.1,0.2,0.1c0.2,0,0.4-0.1,0.6-0.1c0.2,0,0.5,0,0.8,0
		c0.1,0,0.3,0,0.3-0.1c0-0.3-0.9,0.2-1-1.2l-0.2-2.5c0-0.1,0-0.1,0-0.1s0.1,0,0.1,0.1l3.6,3.5c0.1,0.1,0.1,0.1,0.2,0.1
		c0.1,0,0.1-0.1,0.1-0.2l-0.4-4.1c-0.1-0.8,0.5-0.6,0.5-0.9c0,0,0-0.1-0.1-0.1s-0.3,0.1-0.7,0.1c-0.5,0-0.7,0-0.8,0S35,55.9,35,55.9
		c0,0.2,0.8,0,0.9,0.7l0.2,2.4c0,0.2,0,0.3,0,0.3s-0.1-0.1-0.2-0.2l-3-3C32.7,56,32.8,56,32.6,56c-0.4,0-0.5,0.1-0.7,0.1
		c-0.1,0-0.3,0-0.4,0s-0.1,0.1-0.1,0.1c0,0.3,0.8-0.2,0.9,1.2L32.5,60.2z"/>
	<path class="st0" d="M41,54.6C41,54.6,40.9,54.6,41,54.6c-0.2,0-0.1,0.2-0.2,0.3c-0.2,0.1-0.8-0.2-1.6,0c-1.7,0.5-1.9,2.3-1.5,3.4
		c0.2,0.5,1,2.2,2.9,1.6c1.4-0.4,1.8-1.7,1.7-2c0,0-0.1-0.1-0.1,0C42,58,41.9,59,40.8,59.3c-1.3,0.4-2.2-0.8-2.5-1.8
		c-0.3-0.9,0-2.1,0.9-2.4c0.8-0.2,1.5,0.2,2.1,0.8c0.1,0.1,0.2,0.2,0.3,0.2s0-0.2,0-0.3L41,54.6z"/>
	<path class="st0" d="M43,54.2c-0.3-0.6,0.3-0.6,0.1-0.8c0-0.1-0.1-0.1-0.3,0c-0.3,0.2-0.6,0.3-0.8,0.4c-0.2,0.1-0.5,0.2-0.7,0.3
		c-0.1,0-0.2,0.1-0.2,0.2c0.1,0.2,0.7-0.3,1,0.3l1.6,3.1c0.3,0.6-0.2,0.7-0.1,0.9c0,0,0.1,0.1,0.1,0c0.2-0.1,0.4-0.2,0.7-0.4
		c0.5-0.3,0.7-0.3,0.9-0.5c0.1-0.1,0.2-0.1,0.1-0.2c-0.1-0.2-0.6,0.5-1.1-0.3L43,54.2z"/>
	<path class="st0" d="M3.5,28.7c-0.4-0.2-0.4-0.4-0.5-0.5c-0.1,0-0.1,0.1-0.1,0.2c0,0.2,0,0.3,0,0.5s-0.1,0.3-0.1,0.5
		c0,0.1,0,0.2,0.1,0.3c0.3,0,0-0.6,0.7-0.5c0.1,0,0.4,0,0.8,0.3l2.1,1c0.1,0,0.1,0.1,0.1,0.1s-0.1,0.1-0.2,0.1L4,31.2
		c-0.5,0.1-0.8,0.1-1,0.1c-0.3,0-0.2-0.4-0.4-0.4c-0.1,0-0.1,0-0.1,0.2c0,0.1,0,0.3,0,0.6c0,0.2-0.1,0.4-0.1,0.6
		c0,0.1-0.1,0.3,0.1,0.3c0.1,0,0.1-0.1,0.1-0.1c0.1-0.2,0.2-0.3,0.5-0.4l4.4-1C7.8,31,7.9,31,7.9,30.9s0-0.1-0.2-0.2L3.5,28.7z"/>
	<path class="st0" d="M6.9,28.2c0.7,0.2,0.5,0.7,0.8,0.7c0.1,0,0.1-0.1,0.1-0.2c0-0.2,0-0.3,0.1-0.5c0-0.2,0.1-0.4,0.2-0.7
		c0-0.1,0.1-0.2,0-0.2c-0.3-0.1,0,0.8-1.4,0.4l-2.4-0.6c-0.1,0-0.1,0-0.1-0.1l0.1-0.1L8.6,25c0.1,0,0.1,0,0.1-0.1s0-0.1-0.2-0.1
		l-4-0.9c-0.7-0.2-0.5-0.6-0.7-0.7c0,0-0.1,0-0.1,0.1s0,0.3-0.1,0.6c-0.1,0.4-0.2,0.5-0.2,0.6s0.1,0.1,0.1,0.1
		c0.2,0.1,0.3-0.7,0.9-0.5l2.4,0.5C7,25,7.1,25,7.1,25S7,25.1,6.9,25.1l-3.7,1.6C3,26.8,3,26.7,3,26.9c-0.1,0.3-0.1,0.5-0.1,0.6
		s-0.1,0.2-0.1,0.3c0,0.1,0,0.1,0.1,0.1c0.3,0.1,0-0.7,1.4-0.3L6.9,28.2z"/>
	<path class="st0" d="M5,22.1c-0.7-0.2-0.3-0.5-0.5-0.6c-0.1,0-0.1,0-0.2,0.2c-0.1,0.3-0.1,0.5-0.2,0.7c0,0.2-0.1,0.4-0.2,0.6
		c0,0-0.1,0.2,0,0.2c0.2,0.1,0.3-0.6,0.9-0.4l3.3,1.1c0.7,0.2,0.3,0.6,0.6,0.6h0.1c0-0.1,0.1-0.4,0.2-0.6c0.1-0.4,0.2-0.6,0.3-0.8
		c0-0.1,0-0.2,0-0.2c-0.2-0.1-0.1,0.6-1,0.4L5,22.1z"/>
	<path class="st0" d="M6.7,18c-0.3-0.3-0.2-0.5-0.4-0.6c-0.1-0.1-0.1,0-0.2,0.1C6.1,17.7,6,17.8,6,18c-0.1,0.2-0.2,0.3-0.2,0.4
		s-0.1,0.2,0,0.3C6,18.8,6,18.2,6.6,18.4c0.1,0,0.3,0.2,0.7,0.5L9,20.6l0.1,0.1c0,0-0.1,0-0.2,0l-2.4-0.3c-0.5,0-0.8-0.1-1-0.2
		c-0.3-0.1,0-0.4-0.2-0.5c-0.1-0.1-0.1,0-0.2,0.1C5,20,5,20.2,4.8,20.5c-0.1,0.2-0.2,0.4-0.3,0.5c0,0.1-0.2,0.2,0,0.3h0.1
		c0.2-0.2,0.3-0.2,0.6-0.2l4.5,0.4c0.3,0,0.4,0,0.4,0c0-0.1,0-0.1-0.1-0.2L6.7,18z"/>
	<path class="st0" d="M7.9,16.5c-0.4-0.3-0.4-0.3,0-0.9c0.6-0.9,1.1-0.1,1.2-0.3C9.2,15.1,8.9,15,8.9,15l-0.6-0.4
		c-0.1,0-0.1,0-0.2,0c-0.3,0.4-0.5,0.8-0.7,1.1c-0.5,0.7-0.7,1.1-0.9,1.3c0,0.1,0,0.1,0,0.2c0.2,0.2,0.4-0.5,1-0.2l2.9,1.9
		c0.7,0.5,0.2,0.6,0.5,0.8H11c0.2-0.3,0.3-0.5,0.4-0.6c0.2-0.2,0.4-0.5,0.9-1.3c0.3-0.4-0.1-1-0.5-1.3c-0.1-0.1-0.2-0.1-0.2,0
		c-0.1,0.2,0.7,0.6-0.1,1.8c-0.2,0.4-0.4,0.2-0.8-0.1l-0.8-0.5c-0.4-0.2-0.4-0.3-0.3-0.5l0.2-0.4c0.3-0.5,0.9,0,1-0.1
		s-0.2-0.2-0.2-0.3l-1.1-0.7c-0.2-0.1-0.2,0-0.2,0c-0.1,0.1,0.5,0.5,0.2,0.9L9.2,17c-0.1,0.2-0.2,0.2-0.4,0L7.9,16.5z"/>
	<path class="st0" d="M15.1,13.7c0.1,0.1,0.2,0.2,0.3,0.1c0.3-0.1,0.7-0.2,0.9-0.4c0.6-0.5,0.6-1.3,0-2.1c-0.6-0.7-1.1-0.7-1.8-0.6
		c-0.9,0.2-1.2,0.3-1.5-0.1c-0.3-0.4-0.3-0.8,0-1c0.8-0.6,1.7,0.3,1.8,0.3c0.1-0.1,0.1-0.2-0.1-0.3L14,8.9c0-0.1,0-0.2-0.1-0.1
		c-0.1,0-0.1,0.2-0.2,0.3c-0.1,0.1-0.5,0.1-0.9,0.4c-0.5,0.4-0.5,1.2,0.1,1.8c0.5,0.6,0.9,0.6,1.5,0.5c1-0.2,1.4-0.4,1.8,0.1
		c0.4,0.4,0.3,0.9,0,1.2c-0.5,0.4-1.2,0.1-1.8-0.3c-0.1-0.1-0.1-0.1-0.2,0c-0.1,0.1,0.1,0.2,0.1,0.3L15.1,13.7z"/>
	<path class="st0" d="M15.9,8.2c-0.4-0.6,0.1-0.6,0-0.8c-0.1-0.1-0.1-0.1-0.2,0c-0.3,0.2-0.4,0.3-0.6,0.5c-0.2,0.1-0.4,0.2-0.6,0.4
		c0,0-0.2,0.1-0.1,0.2c0.1,0.2,0.6-0.3,0.9,0.2l2,2.9c0.4,0.6-0.1,0.6,0.1,0.9c0,0,0.1,0.1,0.1,0c0.1-0.1,0.3-0.3,0.5-0.4
		c0.4-0.3,0.6-0.4,0.7-0.5s0.1-0.1,0.1-0.2c-0.1-0.2-0.5,0.5-1-0.3L15.9,8.2z"/>
	<path class="st0" d="M36.1,3.8c0.1-0.3,0.2-0.4,0.4-0.4c0.9,0.2,0.8,1.2,0.7,1.4c0,0.2-0.2,1-0.9,0.9c-0.1,0-0.2-0.1-0.3-0.1
		c0-0.1,0,0,0,0s0,0.2,0.6,0.3c0.7,0.1,1.3-0.3,1.5-1.2c0.2-1-0.5-1.5-1.2-1.6C36.4,3,36,3,35.9,3c-0.4-0.1-0.7-0.2-0.8-0.2
		s-0.2,0.1-0.2,0.1c0,0.3,0.6,0.1,0.5,0.8l-0.6,3.2c-0.2,0.9-0.6,0.7-0.6,0.9c0,0.1,0.1,0.1,0.1,0.1S34.8,8,35,8
		c0.1,0,0.4,0.1,0.8,0.2c0.1,0,0.1,0,0.2-0.1c0-0.3-0.6-0.1-0.4-1L36.1,3.8z"/>
	<path class="st0" d="M41,4.1c-1.3-0.4-2.4,0.4-3,2c-0.5,1.4-0.1,2.6,1,3c1.8,0.6,2.7-1,3-1.9C42.6,5.6,42,4.4,41,4.1z M41.3,7.1
		c-0.4,1.1-1,2-2,1.7s-0.8-1.9-0.5-2.9s0.9-1.9,1.9-1.6C41.4,4.5,41.8,5.6,41.3,7.1z"/>
	<path class="st0" d="M44.2,6.2c0.2-0.5,0.5-0.1,0.6-0.3c0-0.1,0-0.1-0.1-0.2c-0.1,0-0.2,0-0.6-0.3c-0.2-0.1-0.5-0.3-0.7-0.4
		c-0.1-0.1-0.2,0-0.2,0c-0.1,0.2,0.6,0.4,0.3,0.9L41.9,9c-0.4,0.8-0.6,0.2-0.8,0.5c0,0,0,0.1,0.1,0.1c0.3,0.1,0.5,0.2,0.7,0.3
		c0.3,0.1,0.6,0.3,1.3,0.7c0.4,0.2,1-0.2,1.3-0.7c0.1-0.1,0-0.2,0-0.2c-0.2-0.1-0.6,0.8-1.8,0.1c-0.4-0.2-0.2-0.4,0-0.8L44.2,6.2z"
		/>
	<path class="st0" d="M47.3,8.1C47.7,7.5,47.9,8,48,7.8c0-0.1,0-0.1-0.1-0.2c-0.3-0.2-0.5-0.3-0.6-0.4C47.1,7.1,47,7,46.8,6.8
		c0,0-0.2-0.1-0.2,0c-0.1,0.2,0.5,0.4,0.1,1l-2,2.9c-0.4,0.6-0.6,0.2-0.8,0.4v0.1c0.1,0.1,0.4,0.2,0.6,0.3c0.4,0.3,0.5,0.4,0.7,0.5
		c0.1,0.1,0.2,0.1,0.2,0c0.1-0.2-0.6-0.3-0.1-1L47.3,8.1z"/>
	<path class="st0" d="M47.1,12.2c-0.5,0.7-0.8,0-1,0.2c-0.1,0.1,0,0.2,0.1,0.2c0.2,0.1,0.4,0.2,0.7,0.5c0.3,0.2,0.4,0.4,0.6,0.5
		c0.1,0.1,0.2,0.2,0.3,0.1c0.1-0.2-0.6-0.5,0-1.2l2-2.6c0.2-0.2,0.2-0.2,0.4,0l0.4,0.3c0.5,0.4-0.1,0.9,0.1,1.1
		c0.1,0.1,0.2-0.2,0.3-0.2l0.4-0.6c0-0.1,0.1-0.1,0-0.2C51,10,50.6,9.7,50,9.2c-0.7-0.5-1-0.8-1.4-1.1c-0.1-0.1-0.1,0-0.2,0.1
		l-0.7,0.7c-0.1,0.1-0.2,0.2-0.1,0.2c0.2,0.2,0.7-0.7,1.2-0.3l0.4,0.3c0.2,0.1,0.2,0.2,0,0.5L47.1,12.2z"/>
	<path class="st0" d="M52.1,12.3c0.4-0.3,0.4-0.3,0.9,0.2c0.8,0.8-0.2,1.1,0,1.3c0.1,0.1,0.2-0.1,0.3-0.2l0.5-0.5c0,0,0.1-0.1,0-0.2
		c-0.3-0.4-0.6-0.6-0.9-0.9c-0.6-0.7-0.9-1-1-1.2c-0.1-0.1-0.1-0.1-0.2,0c-0.2,0.2,0.4,0.5-0.1,1l-2.5,2.3c-0.6,0.6-0.7,0-0.9,0.2
		v0.1c0.2,0.2,0.4,0.4,0.5,0.5c0.2,0.2,0.4,0.5,1,1.1c0.3,0.3,1,0.2,1.4-0.2c0.1-0.1,0.1-0.1,0.1-0.2c-0.1-0.2-0.8,0.5-1.8-0.5
		c-0.3-0.3-0.1-0.5,0.2-0.8l0.7-0.6c0.3-0.3,0.4-0.4,0.5-0.2l0.3,0.3c0.4,0.4-0.3,0.8-0.1,1c0.1,0.1,0.3-0.1,0.3-0.2l0.9-0.9
		c0.1-0.1,0.1-0.2,0.1-0.2c-0.1-0.1-0.6,0.4-0.9,0l-0.3-0.3C50.9,13,51,13,51.2,12.8L52.1,12.3z"/>
	<path class="st0" d="M56.4,16.8C56.5,16.8,56.4,16.7,56.4,16.8c0-0.1-0.3,0-0.3-0.1c-0.1-0.1,0-0.8-0.4-1.3
		c-0.8-1.2-2.5-0.8-3.5-0.1c-0.5,0.3-1.9,1.6-0.9,3c0.7,1,2,0.9,2.2,0.8V19c-0.1-0.1-1.1,0.1-1.6-0.7c-0.6-0.9,0.3-2.1,1.2-2.7
		c0.8-0.5,1.9-0.7,2.4,0c0.4,0.6,0.1,1.3-0.3,2c-0.1,0.1-0.2,0.2-0.1,0.3c0.1,0.1,0.2,0,0.2-0.1L56.4,16.8z"/>
	<path class="st0" d="M53.5,19.7c-0.7,0.3-0.8-0.2-1.1-0.1c-0.1,0.1,0,0.1,0,0.2c0.1,0.1,0.2,0.3,0.2,0.4c0.1,0.2,0.1,0.4,0.3,0.6
		c0,0.1,0.1,0.2,0.2,0.2c0.3-0.1-0.5-0.6,0.8-1.2l2.2-1c0.1,0,0.1,0,0.1,0v0.1L54,23c0,0.1-0.1,0.1,0,0.2c0,0.1,0.1,0,0.2,0l3.7-1.7
		c0.7-0.3,0.7,0.2,0.9,0.1c0,0,0.1,0,0-0.1c0,0-0.1-0.2-0.3-0.6s-0.2-0.5-0.3-0.6c0-0.1-0.1-0.1-0.2,0c-0.2,0.1,0.2,0.7-0.4,1
		l-2.2,1c-0.2,0.1-0.2,0.1-0.3,0.1c0,0,0-0.1,0.1-0.2l1.9-3.5c0.1-0.2,0.2-0.1,0.1-0.3c-0.1-0.3-0.2-0.4-0.3-0.5
		c0-0.1-0.1-0.2-0.1-0.3c0-0.1-0.1-0.1-0.2,0c-0.3,0.1,0.4,0.5-0.9,1.1L53.5,19.7z"/>
	<path class="st0" d="M58.7,23.5c0.7-0.2,0.5,0.3,0.8,0.2c0.1,0,0.1-0.1,0-0.2c-0.1-0.3-0.2-0.5-0.3-0.7s-0.1-0.4-0.2-0.6
		c0-0.1,0-0.2-0.2-0.2c-0.2,0.1,0.2,0.6-0.5,0.8L55,23.9c-0.7,0.2-0.6-0.2-0.8-0.2c0,0-0.1,0-0.1,0.1s0.2,0.4,0.2,0.6
		c0.1,0.4,0.2,0.6,0.2,0.9c0,0.1,0.1,0.2,0.2,0.1c0.2-0.1-0.3-0.6,0.6-0.9L58.7,23.5z"/>
	<path class="st0" d="M60.3,27.8L60.3,27.8c0-0.2-0.2-0.1-0.2-0.2c0-0.2,0.3-0.7,0.2-1.4c-0.3-1.4-1.9-1.8-3.1-1.5
		c-0.6,0.1-2.4,0.7-2.1,2.4c0.2,1.2,1.4,1.6,1.7,1.6l0.1-0.1c0-0.1-1-0.4-1.2-1.3c-0.2-1.1,1.1-1.8,2.2-2c1-0.2,2,0.1,2.2,1
		c0.1,0.7-0.4,1.3-1.1,1.7c-0.1,0.1-0.2,0.1-0.2,0.2s0.2,0,0.2,0L60.3,27.8z"/>
	<path class="st0" d="M18.6,46.1c-0.2,0.1-0.2,0.1-0.4-0.2c-0.4-0.5,0.1-0.5,0-0.6c0-0.1-0.1,0-0.2,0.1l-0.3,0.2v0.1
		c0.2,0.2,0.3,0.4,0.4,0.5c0.3,0.4,0.4,0.6,0.5,0.7h0.1c0.1-0.1-0.2-0.3,0.1-0.5l1.3-1c0.3-0.2,0.3,0,0.4,0c0,0,0,0,0-0.1
		c-0.1-0.1-0.2-0.2-0.2-0.3c-0.1-0.1-0.2-0.3-0.5-0.6c-0.2-0.2-0.5-0.2-0.7,0c-0.1,0,0,0.1,0,0.1c0.1,0.1,0.4-0.2,0.9,0.4
		c0.1,0.2,0,0.2-0.1,0.4l-0.3,0.3c-0.2,0.1-0.2,0.2-0.3,0l-0.1-0.2c-0.2-0.3,0.1-0.4,0.1-0.5s-0.1,0-0.2,0.1l-0.5,0.4
		c-0.1,0.1,0,0.1,0,0.1s0.3-0.1,0.4,0.1l0.1,0.2c0.1,0.1,0.1,0.1-0.1,0.2L18.6,46.1z"/>
	<path class="st0" d="M19.2,44.1c0.2,0,0.3,0.1,0.4,0.1v-0.1c-0.1-0.1-0.1-0.1-0.2-0.2c-0.1-0.1-0.1-0.1-0.2-0.3c0,0-0.1-0.1-0.1,0
		c-0.1,0.1,0.1,0.2,0,0.3c0,0-0.1,0.1-0.3,0.1h-0.4c-0.1,0-0.2,0-0.2,0v-0.1l0.2-0.5c0-0.1,0.1-0.1,0.1-0.2c0.1-0.1,0.2,0.1,0.2,0
		v-0.1c-0.1-0.1-0.1-0.2-0.2-0.3s-0.1-0.2-0.2-0.2c-0.1-0.1-0.1-0.1-0.1-0.1c-0.1,0,0.1,0.2-0.1,0.5l-0.3,0.8c0,0.1,0,0.1-0.1,0.2
		c0,0-0.1,0-0.2,0H17c-0.4,0-0.5-0.2-0.5-0.1c0,0,0,0,0,0.1c0.1,0.1,0.2,0.2,0.2,0.3c0.1,0.1,0.1,0.1,0.2,0.3c0,0,0,0.1,0.1,0
		c0.1,0-0.1-0.2,0-0.3c0,0,0.1-0.1,0.3-0.1h0.4h0.1v0.1l-0.2,0.5c0,0,0,0.1-0.1,0.1c-0.1,0.1-0.2-0.1-0.3,0c0,0,0,0,0,0.1
		s0.1,0.1,0.2,0.3s0.2,0.3,0.2,0.3h0.1c0.1-0.1-0.1-0.1,0.1-0.7l0.2-0.6c0-0.1,0.1-0.2,0.1-0.2s0.1,0,0.2,0L19.2,44.1z"/>
	<path class="st0" d="M28.4,12.9c0.4,0,0.7,0.3,0.7,0.7s-0.3,0.7-0.7,0.7c-0.4,0-0.7-0.3-0.7-0.7C27.7,13.2,28,12.9,28.4,12.9z"/>
	<path class="st0" d="M22.2,14.3c0.4,0,0.7,0.3,0.7,0.7s-0.3,0.7-0.7,0.7c-0.4,0-0.7-0.3-0.7-0.7S21.9,14.3,22.2,14.3z"/>
	<path class="st1" d="M42.6,16.9c-0.2,0.4-0.3,0.5-1,0.3c-0.5-0.1-0.5-0.8-0.5-1.1l-0.9-0.3c-0.4,0.8-0.9,0.8-1.2,0.8
		c-0.7-0.1-0.7-1.2-0.7-1.8l-0.9-0.2c-0.5,1.3-0.7,1.5-1.2,1.6c-0.3,0.1-0.6-0.1-0.7-0.3c-0.2-0.2-0.3-0.5-0.3-0.8
		c0-0.1,0-0.3,0-0.4l-1-0.1c0,0.2-0.1,0.3-0.1,0.5c-0.1,0.4-0.3,0.7-0.5,0.9c-0.2,0.1-0.3,0.1-0.5,0.1C32.6,16,32,15.6,32,13.8h-1
		c0,0.1,0,0.1,0,0.2l0,0c0,1.3-0.3,1.9-1.1,2.1c-0.2,0.1-0.4,0-0.5-0.1c-0.2-0.2-0.4-0.5-0.5-0.9c0-0.1,0-0.3,0-0.4l-1,0.1
		c0,0.1,0,0.3,0,0.4c0,0.3-0.2,0.7-0.4,0.9c-0.2,0.2-0.4,0.3-0.6,0.2c-0.6-0.1-0.9-0.4-1.3-1.6l-0.9,0.2c0,0.7,0,1.8-0.6,1.9
		c-0.3,0-0.7,0-1.2-0.9L22.1,16c0.1,0.6-0.2,1.2-0.5,1.3C21,17.5,21,17.5,20.7,17l-0.1-0.1l-0.8,0.5l0.1,0.1c0.4,0.8,0.8,1.1,2,0.8
		c0.5-0.1,0.9-0.5,1.1-1c0.4,0.4,0.9,0.5,1.4,0.4s1-0.3,1.3-1.2c0.3,0.4,0.7,0.6,1.3,0.7c0.5,0.1,1.1-0.1,1.5-0.5
		c0.1-0.1,0.2-0.2,0.3-0.3c0.1,0.1,0.2,0.2,0.3,0.3c0.4,0.3,0.9,0.4,1.4,0.3c0.6-0.2,1.1-0.5,1.3-1c0.3,0.5,0.7,0.8,1.3,1
		c0.5,0.1,0.9,0,1.3-0.3c0.1-0.1,0.2-0.2,0.3-0.3c0.1,0.1,0.1,0.1,0.2,0.2c0.4,0.5,1,0.7,1.6,0.6s0.9-0.3,1.2-0.7
		c0.3,0.8,0.9,1,1.3,1.1c0.4,0.1,1,0,1.5-0.3c0.2,0.5,0.6,0.8,1.1,0.9s1.6,0.3,2.1-0.9L42.6,16.9z"/>
	<path class="st0" d="M34.7,13c0.4,0,0.7,0.3,0.7,0.7s-0.3,0.7-0.7,0.7S34,14.1,34,13.7S34.3,13,34.7,13z"/>
	<path class="st0" d="M41,14.2c0.4,0,0.7,0.3,0.7,0.7s-0.3,0.7-0.7,0.7s-0.7-0.3-0.7-0.7S40.6,14.2,41,14.2z"/>
	<polygon class="st0" points="22.2,20.3 23,19.6 23.9,19.9 23.2,20.6 	"/>
	<path class="st1" d="M20.6,19.8c4.1-1.3,6.6-1.7,11-1.7s6.9,0.4,11,1.7c0,0,0.3,0.1,0.5-0.3c0.1-0.4-0.2-0.6-0.2-0.6
		c-4.2-1.3-6.8-1.7-11.3-1.7s-7.1,0.4-11.3,1.7c0,0-0.3,0.1-0.2,0.5C20.3,19.8,20.6,19.8,20.6,19.8z"/>
	<path class="st1" d="M21.5,22.4c0.4-0.1,0.8-0.2,1.2-0.3c2.1-0.5,4.6-1.1,8.9-1.1c3.6,0,6,0.5,9,1.1l1.1,0.2c0,0,0.3,0.1,0.4-0.4
		c0.1-0.4-0.3-0.5-0.3-0.5l-1.1-0.2c-3.1-0.6-5.6-1.1-9.2-1.1c-4.4,0-7,0.6-9.1,1.1c-0.4,0.1-0.8,0.2-1.2,0.3c0,0-0.3,0.1-0.2,0.5
		C21.2,22.5,21.5,22.4,21.5,22.4z"/>
	<polygon class="st0" points="27.8,19.2 28.7,18.7 29.6,19.1 28.7,19.7 	"/>
	<path class="st0" d="M42.7,20.9c0.2-0.4-0.1-1-0.1-1c-0.3-0.1-1,0-1.1,0.4c-0.2,0.5,0,0.8,0.5,1.2C42,21.5,42.4,21.3,42.7,20.9z"/>
	<polygon class="st0" points="41,20.3 40.3,19.6 39.4,19.9 40.1,20.6 	"/>
	<polygon class="st0" points="35.4,19.2 34.6,18.7 33.7,19.1 34.5,19.7 	"/>
	<path class="st0" d="M38.8,19.8c0.1-0.5-0.5-0.8-1.2-1c-0.7-0.1-1.4,0.1-1.4,0.5c-0.1,0.5,0.4,0.8,1.2,1
		C38,20.4,38.7,20.2,38.8,19.8z"/>
	<path class="st0" d="M47.8,22.2c0.1-0.1,0.2-0.1,0.3,0c0.2,0.4-0.2,0.7-0.3,0.7s-0.4,0.2-0.6-0.1c0-0.1,0-0.1-0.1-0.1H47
		c0,0-0.1,0.1,0.1,0.3c0.2,0.3,0.6,0.4,0.9,0.2c0.4-0.3,0.4-0.7,0.2-1c-0.1-0.2-0.2-0.4-0.3-0.4c-0.1-0.2-0.2-0.3-0.2-0.4
		s-0.1,0-0.1,0c-0.1,0.1,0.2,0.3-0.2,0.5L46,22.7c-0.4,0.2-0.4,0-0.5,0s0,0.1,0,0.1s0.1,0.2,0.2,0.3c0,0.1,0.1,0.2,0.2,0.4
		c0,0,0,0.1,0.1,0s-0.2-0.3,0.2-0.5L47.8,22.2z"/>
	<path class="st0" d="M50.7,29.8c0.1,0,0.1,0,0.1-0.1c0,0-0.1,0-0.1-0.1s0.2-0.4,0.1-0.8c-0.1-0.8-0.9-1-1.5-0.9
		c-0.3,0-1.2,0.3-1,1.2c0,0.3,0.3,0.6,0.5,0.9c0,0,0,0,0.1,0c0,0,0.1,0,0.3-0.1c0.5-0.1,0.3,0.2,0.4,0.1l0,0c0-0.1,0-0.2-0.1-0.3
		c0-0.1,0-0.3,0-0.4s0-0.2-0.1-0.1c-0.1,0,0.2,0.3-0.4,0.4c-0.2,0-0.5,0.1-0.6-0.5c-0.1-0.5,0.5-0.8,1-0.9c0.9-0.1,1.2,0.2,1.2,0.5
		c0.1,0.8-0.7,0.9-0.7,1s0,0.1,0.1,0.1L50.7,29.8z"/>
	<path class="st0" d="M50.4,33.1c0.2,0,0.2,0,0.2,0.4c-0.1,0.6-0.5,0.3-0.5,0.4c0,0.1,0.1,0.1,0.2,0.1h0.4c0,0,0.1,0,0.1-0.1
		c0-0.3,0-0.5,0.1-0.7c0-0.5,0.1-0.7,0.1-0.8c0,0,0-0.1-0.1-0.1s-0.1,0.3-0.4,0.3l-1.7-0.2c-0.4,0-0.2-0.3-0.4-0.3c0,0,0,0,0,0.1
		c0,0.2,0,0.3,0,0.4c0,0.2,0,0.3-0.1,0.8c0,0.2,0.2,0.5,0.5,0.5c0.1,0,0.1,0,0.1,0c0-0.1-0.5-0.1-0.4-0.9c0-0.2,0.1-0.2,0.4-0.2h0.5
		c0.2,0,0.3,0,0.2,0.2v0.2c0,0.3-0.4,0.2-0.4,0.3s0.1,0.1,0.2,0.1H50c0.1,0,0.1,0,0.1,0c0-0.1-0.3-0.1-0.3-0.4V33
		c0-0.1,0-0.1,0.2-0.1L50.4,33.1z"/>
	<path class="st0" d="M48.4,34.2c-0.1,0-0.1,0-0.2,0.1c-0.1,0.2-0.2,0.3-0.2,0.5c-0.1,0.4,0.2,0.7,0.6,0.8c0.4,0.1,0.6-0.1,0.9-0.4
		c0.3-0.4,0.4-0.5,0.6-0.5c0.2,0,0.3,0.2,0.3,0.4c-0.1,0.5-0.8,0.4-0.8,0.5s0,0.1,0.1,0.1l0.5,0.1c0.1,0,0.1,0,0.1,0s0-0.1,0-0.2
		c0-0.1,0.2-0.2,0.2-0.4c0.1-0.3-0.2-0.6-0.6-0.7c-0.4-0.1-0.5,0.1-0.7,0.3c-0.3,0.4-0.4,0.6-0.7,0.6c-0.3-0.1-0.4-0.3-0.4-0.5
		c0.1-0.3,0.4-0.5,0.8-0.5c0,0,0.1,0,0.1-0.1s-0.1-0.1-0.1-0.1L48.4,34.2z"/>
	<path class="st0" d="M48.1,35.7c-0.1,0-0.1,0-0.2,0c-0.1,0.2-0.2,0.3-0.3,0.4c-0.1,0.4,0.1,0.7,0.5,0.9c0.4,0.1,0.6,0,0.9-0.3
		c0.3-0.3,0.4-0.5,0.7-0.4c0.2,0.1,0.3,0.2,0.3,0.4c-0.2,0.5-0.8,0.3-0.8,0.4c0,0.1,0,0.1,0.1,0.1l0.5,0.1c0.1,0,0.1,0,0.1,0
		s0-0.1,0-0.2c0-0.1,0.2-0.2,0.3-0.4c0.1-0.3-0.1-0.7-0.5-0.8s-0.5,0-0.8,0.2c-0.4,0.4-0.5,0.6-0.8,0.5s-0.4-0.3-0.3-0.5
		c0.1-0.3,0.5-0.4,0.8-0.4h0.1c0-0.1-0.1-0.1-0.1-0.1L48.1,35.7z"/>
	<path class="st0" d="M49.2,38.3c0.3,0.1,0.1,0.3,0.2,0.3c0,0,0.1,0,0.1-0.1c0.1-0.2,0.1-0.3,0.1-0.4c0-0.1,0.1-0.2,0.1-0.3v-0.1
		c-0.1,0-0.1,0.3-0.4,0.2l-1.6-0.6c-0.3-0.1-0.2-0.3-0.3-0.3c0,0,0,0-0.1,0c0,0.1-0.1,0.2-0.1,0.3c-0.1,0.2-0.1,0.3-0.2,0.4
		c0,0.1,0,0.1,0,0.1c0.1,0,0.1-0.3,0.5-0.2L49.2,38.3z"/>
	<path class="st0" d="M48.1,38.3c-0.7-0.2-1.3,0-1.5,0.5c-0.3,0.9,0.4,1.4,0.9,1.6c0.7,0.3,1.3,0,1.5-0.6
		C49.3,39.1,48.9,38.5,48.1,38.3z M48.9,39.6c-0.1,0.4-0.6,0.6-1.4,0.3c-0.6-0.2-1-0.5-0.8-1s0.9-0.4,1.4-0.3
		C48.7,38.9,49.1,39.2,48.9,39.6z"/>
	<path class="st1" d="M21.9,46.1c-0.1-0.3-0.2-0.5-0.4-0.8c-0.4-0.6-0.5-0.7-1.1-1.5l-0.1-0.1L21,43l0.1-0.1l0.1-0.1l0,0l0,0l0,0
		l-0.3-0.5c-0.4-0.5-0.6-1-1-1.7c-0.5-1.1-0.7-1.7-1-2.8l0,0l0,0L18.5,38l-0.9,0.2c-1.5-3.7-1.9-7.1-1.2-10l2.1,0.9l0.2,0.1l0.1-0.3
		l1-3.7l0.1-0.1h-0.1l0,0l0,0L19.6,25l-0.9-0.5l0.4-1.8l0.1-0.2H19l-4-2.6l-0.1,0.2L14.7,20c-2.2,3.1-3.5,7-3.6,10.9
		c-0.1,4.1,1,8,3.2,11.3l0.1,0.2l0.2-0.1l1.3-0.8c0.1,0.2,0.3,0.5,0.4,0.8c0.1,0.1,0.2,0.2,0.2,0.3l-1.2,0.8l0.1,0.2l-0.2,0.1
		l0.1,0.2c0.8,1.3,2.7,4.5,4.5,3.9c0.5-0.2,0.9-0.5,1.2-0.8c0.2-0.2,0.4-0.4,0.7-0.5l0.2-0.1l-0.1-0.2L21.9,46.1z M20.1,43.3
		c-0.3-0.4-0.5-0.8-0.8-1.2l1.1,0.8L20.1,43.3z M18.3,38.6l-0.2,0.8c-0.1-0.2-0.2-0.4-0.3-0.7L18.3,38.6z M18.4,28.6l-1.9-0.8
		c0-0.1,0.1-0.3,0.1-0.4l1.2,0.1h0.1l0.1-0.1l1-1.3L18.4,28.6z M16.8,27c0.4-1.1,0.9-2.2,1.7-3.3l-0.8,3.4L16.8,27z M19.2,25.3
		l-0.9,1.1l0.3-1.4L19.2,25.3z M14.6,41.8c-2.1-3.2-3.1-7-3-10.9c0.1-3.8,1.3-7.5,3.4-10.5l3.6,2.3c-3.6,4.6-3.8,10.2-0.8,17.1
		L14.6,41.8z M16.3,41.3l1.9-1.2l0.2-0.1l0,0l0,0l0.3-1.2c0.2,0.7,0.4,1.3,0.8,2.1c0.2,0.5,0.4,0.9,0.7,1.2l-1.3-0.9l0,0v-0.1
		l-0.2,0.1L17,42.3c-0.1-0.1-0.2-0.2-0.2-0.3C16.5,41.8,16.4,41.4,16.3,41.3z M20.9,46.7c-0.3,0.3-0.6,0.5-1.1,0.7
		c-1.5,0.5-3.3-2.5-4-3.7l0,0l2.8-1.8c0.4,0.8,1,1.7,1.5,2.3c0.6,0.7,0.7,0.9,1,1.4c0.2,0.3,0.2,0.4,0.3,0.7l0,0
		C21.3,46.4,21.1,46.6,20.9,46.7z M52.1,30.9C52,27,50.7,23.1,48.5,20l-0.2,0.1l-0.1-0.2l-4,2.6L44,22.7l0.1,0.2l0.4,1.8l-0.9,0.5
		l-0.2,0.1l0,0l0,0h-0.1l0.1,0.1l1,3.7l0.1,0.3l0.2-0.1l2.1-0.9c0.6,3,0.2,6.3-1.2,10L44.7,38h-0.4l0,0l0,0c-0.3,1.1-0.5,1.7-1,2.8
		c-0.3,0.7-0.6,1.1-1,1.7L42,42.9l0,0l0,0l0.2,0.2l0.6,0.6l-0.1,0.1c-0.5,0.6-0.6,0.7-0.9,1l-0.3,0.3c-0.4,0.3-0.6,0.7-0.6,1
		c0,0.2,0.1,0.4,0.3,0.4c0.5,0.2,0.6,0.2,0.7,0.3c0.1,0,0.1,0,0.2,0.1l0,0l0,0l0.5,0.1c0.7,0.1,0.9,0.1,1.8-0.2
		c1.7-0.5,2.8-2.8,2.8-2.9H47l0.1-0.2l-0.8-0.5c0.2-0.2,0.4-0.6,0.6-0.9c0.1-0.2,0.3-0.6,0.4-0.8l1.3,0.8l0.2,0.1l0.1-0.2
		C51.1,38.9,52.2,35,52.1,30.9z M44.6,25l0.3,1.4L44,25.3L44.6,25z M44.8,23.7c0.7,1,1.3,2.1,1.7,3.3l-0.9,0.1L44.8,23.7z
		 M44.8,28.6l-0.6-2.5l1,1.3l0.1,0.1h0.1l1.2-0.1c0,0.1,0.1,0.3,0.1,0.4L44.8,28.6z M45.4,38.7c-0.1,0.2-0.2,0.4-0.3,0.7l-0.2-0.8
		L45.4,38.7z M42.8,43l0.9-0.5c-0.2,0.3-0.4,0.6-0.5,0.8L42.8,43z M46.7,44c-0.3,0.6-1.2,2.1-2.4,2.4c-0.9,0.3-0.9,0.2-1.6,0.1
		l-0.5-0.1c-0.1,0-0.2-0.1-0.2-0.1c-0.1,0-0.2-0.1-0.7-0.2c-0.1,0-0.1,0-0.1-0.1s0.1-0.4,0.4-0.6l0,0l0,0l0.3-0.3
		c0.4-0.3,0.5-0.5,1-1.1c0.4-0.5,0.7-0.9,1.2-1.7L46.7,44z M46.5,42.1c-0.2,0.3-0.4,0.6-0.6,0.9l-1.7-1L44,41.8l0,0l0,0l0,0l0,0
		l-1.2,0.6c0.3-0.5,0.6-0.9,0.9-1.5c0.4-0.8,0.6-1.4,0.8-2.1l0.3,1.2l0,0l0,0l0.2,0.1l1.9,1.2C46.8,41.4,46.7,41.8,46.5,42.1z
		 M48.6,41.8l-3.2-2c3.1-6.9,2.8-12.5-0.8-17.1l3.6-2.3c2.1,3,3.3,6.7,3.4,10.5C51.8,34.8,50.7,38.6,48.6,41.8z"/>
	<path class="st0" d="M33,19.1c0-0.5-0.6-0.8-1.3-0.8s-1.4,0.2-1.4,0.7s0.5,0.8,1.3,0.8C32.4,19.9,33,19.6,33,19.1z"/>
	<path class="st0" d="M24.4,19.8c-0.1-0.5,0.5-0.8,1.2-1c0.7-0.1,1.4,0.1,1.4,0.5c0.1,0.5-0.4,0.8-1.2,1
		C25.1,20.4,24.5,20.2,24.4,19.8z"/>
	<path class="st0" d="M15.9,38.5c0.4-0.2,0.4,0.2,0.5,0.1c0.1,0,0-0.1,0-0.1c-0.1-0.1-0.1-0.2-0.2-0.4s-0.1-0.3-0.2-0.4
		c0-0.1-0.1-0.1-0.1-0.1c-0.1,0,0.2,0.3-0.2,0.5l-1.4,0.7c-0.1,0.1-0.2,0.1-0.2-0.1L14,38.6c-0.2-0.3,0.2-0.4,0.2-0.5s-0.1,0-0.2,0
		l-0.3,0.2c0,0-0.1,0-0.1,0.1c0.1,0.3,0.2,0.4,0.4,0.8c0.2,0.4,0.3,0.6,0.4,0.8h0.1l0.4-0.2c0,0,0.1,0,0.1-0.1
		c-0.1-0.1-0.4,0.2-0.6-0.2l-0.1-0.2c-0.1-0.1-0.1-0.1,0.1-0.2L15.9,38.5z"/>
	<path class="st0" d="M13.5,36.9c-0.2,0.1-0.2,0.1-0.3-0.3C13,36,13.5,36.1,13.4,36c0-0.1-0.1,0-0.2,0l-0.3,0.1c0,0-0.1,0,0,0.1
		c0.1,0.3,0.1,0.5,0.2,0.7c0.1,0.5,0.2,0.7,0.2,0.8c0,0,0,0.1,0.1,0c0.1,0-0.1-0.3,0.2-0.4l1.5-0.4c0.4-0.1,0.3,0.2,0.4,0.1
		c0,0,0,0,0-0.1c0-0.2-0.1-0.3-0.1-0.4c0-0.1-0.1-0.3-0.2-0.8c-0.1-0.2-0.4-0.3-0.6-0.3c-0.1,0-0.1,0-0.1,0.1s0.4-0.1,0.7,0.7
		c0.1,0.2-0.1,0.2-0.3,0.3l-0.4,0.1c-0.2,0.1-0.2,0.1-0.3-0.1l-0.1-0.2C14,36,14.4,36,14.4,35.9c0-0.1-0.1,0-0.2,0l-0.6,0.2
		c-0.1,0-0.1,0.1-0.1,0.1c0,0.1,0.3,0,0.4,0.2l0.1,0.2c0,0.1,0,0.1-0.1,0.2L13.5,36.9z"/>
	<path class="st0" d="M13.4,35.2c0.4-0.1,0.6-0.3,0.6-0.7c0-0.3-0.4-0.5-0.4-0.5l0,0c0,0,0.2,0.2,0.2,0.3c0,0.3-0.3,0.5-0.6,0.6
		c-0.2,0-0.5,0-0.5-0.2s0.1-0.2,0.2-0.3l0,0c0-0.1-0.2-0.2-0.2-0.2c-0.2,0-0.2,0.3-0.2,0.4C12.6,35.1,13,35.3,13.4,35.2z"/>
	<path class="st0" d="M12.7,31.4c-0.3,0-0.2-0.2-0.3-0.2c0,0,0,0,0,0.1s0,0.2,0,0.4c0,0.2,0,0.3,0,0.4c0,0,0,0.1,0.1,0.1
		s0-0.3,0.4-0.3h0.5c0.1,0,0.2,0,0.2,0.1v0.9c0,0.1,0,0.1-0.1,0.1H13c-0.3,0-0.2-0.2-0.3-0.2c0,0-0.1,0-0.1,0.1s0,0.2,0,0.4
		s0,0.2,0,0.3s0,0.2,0.1,0.2s0-0.3,0.4-0.3h1.5c0.4,0,0.3,0.3,0.4,0.3c0,0,0.1,0,0.1-0.1c0-0.2,0-0.3,0-0.4c0-0.2,0-0.3,0-0.4
		c0-0.1,0-0.1,0-0.1c-0.1,0,0,0.4-0.4,0.4h-0.5c-0.1,0-0.2,0-0.2-0.1v-0.8c0-0.1,0-0.1,0.2-0.1h0.6c0.3,0,0.2,0.2,0.4,0.2
		c0,0,0,0,0-0.1c0-0.2,0-0.3,0-0.4s0-0.3,0-0.4v-0.1c-0.1,0,0,0.3-0.4,0.3h-2.1V31.4z"/>
	<path class="st0" d="M14.3,30.5c0.3,0,0.3,0.3,0.4,0.3c0.1,0,0-0.1,0-0.1c0-0.1,0-0.2,0-0.3c0-0.1,0-0.2,0-0.4v-0.1
		c-0.2,0,0,0.4-0.6,0.3l-1.1,0h-0.1l0,0l1.9-1.3c0,0,0.1,0,0.1-0.1c0,0,0,0-0.1,0L13,28.5c-0.4,0-0.2-0.3-0.4-0.3c0,0,0,0,0,0.1
		c0,0,0,0.1,0,0.3c0,0.2,0,0.3,0,0.3s0,0.1,0.1,0.1s0.1-0.4,0.4-0.3l1.1,0.1c0.1,0,0.1,0,0.1,0s0,0.1-0.1,0.1L12.5,30
		c-0.1,0-0.1,0-0.1,0.1c0,0.2,0,0.2,0,0.3c0,0.1,0,0.1,0,0.2c0,0,0,0.1,0.1,0.1c0.2,0,0-0.3,0.6-0.3L14.3,30.5z"/>
	<path class="st0" d="M13.2,27c-0.3-0.1-0.1-0.3-0.3-0.3c0,0-0.1,0-0.1,0.1c0,0.2,0,0.3-0.1,0.4c0,0.1-0.1,0.2-0.1,0.3v0.1
		c0.1,0,0.1-0.3,0.4-0.3l1.6,0.3c0.3,0.1,0.2,0.3,0.3,0.3l0,0c0-0.1,0-0.2,0.1-0.3c0.1-0.2,0.1-0.3,0.1-0.5c0-0.1,0-0.1,0-0.1
		c-0.1,0,0,0.3-0.4,0.3L13.2,27z"/>
	<path class="st0" d="M13.9,24.2L13.9,24.2c0,0.1,0.1,0.1,0,0.2c0,0.1-0.3,0.2-0.4,0.6c-0.3,0.7,0.3,1.3,0.8,1.5
		c0.2,0.1,1.1,0.3,1.4-0.6c0.2-0.6-0.1-1.1-0.3-1.1c0,0,0,0-0.1,0c0,0.1,0.3,0.4,0.1,0.9s-0.9,0.5-1.4,0.4c-0.4-0.2-0.8-0.6-0.6-1
		c0.1-0.3,0.5-0.5,0.9-0.5h0.1l-0.1-0.1L13.9,24.2z"/>
	<path class="st0" d="M21.4,54c0-0.2,0-0.3,0-0.3c-0.1,0-0.2,0.1-0.3,0.1l-3.7,3.1c-0.3,0.3-0.6,0.1-0.7,0.2c0,0.1,0.1,0.1,0.1,0.2
		c0.2,0.1,0.4,0.2,0.6,0.2c0.2,0.1,0.4,0.2,0.6,0.3c0.1,0.1,0.3,0.2,0.4,0.1c0.1-0.2-0.6-0.4-0.4-0.9c0.1-0.2,0.3-0.3,0.4-0.4
		c0.4-0.4,0.5-0.3,0.6-0.3l1.2,0.6c0.2,0.1,0.2,0.2,0.1,0.8c0,0.2,0,0.3-0.1,0.5c-0.2,0.4-0.6,0.1-0.7,0.3c0,0.1,0,0.1,0.2,0.2
		c0.2,0.1,0.4,0.2,0.7,0.3c0.4,0.2,0.6,0.3,0.8,0.4c0.2,0.1,0.2,0.1,0.3,0c0.1-0.2-0.4-0.1-0.3-0.7L21.4,54z M20.5,56.3
		c0,0.1,0,0.2-0.1,0.3c0,0.1-0.1,0-0.2,0l-0.8-0.4c-0.1-0.1-0.2-0.1-0.2-0.2c0-0.1,0.1-0.1,0.2-0.2l1.1-0.9c0.1-0.1,0.1-0.1,0.1,0
		c0,0,0,0,0,0.1L20.5,56.3z"/>
	<path class="st0" d="M50.6,54c-0.1-0.2-0.3,0.3-0.8,0l-4.2-2.4c-0.2-0.1-0.2-0.1-0.3-0.1c-0.1,0.1,0,0.2,0,0.3l1.2,4.6
		c0.1,0.4-0.2,0.6-0.1,0.7c0.1,0.1,0.1,0,0.2-0.1c0.2-0.1,0.3-0.3,0.5-0.4c0.2-0.1,0.4-0.2,0.5-0.4c0.1-0.1,0.3-0.2,0.2-0.3
		c-0.1-0.2-0.6,0.4-1,0c-0.1-0.1-0.2-0.4-0.2-0.5c-0.2-0.5-0.1-0.6,0-0.7l1.1-0.8c0.1-0.1,0.2-0.1,0.7,0.2c0.2,0.1,0.3,0.2,0.4,0.3
		c0.3,0.3-0.2,0.6,0,0.8c0.1,0.1,0.1,0,0.2-0.1c0.2-0.1,0.3-0.3,0.6-0.5c0.4-0.3,0.5-0.4,0.7-0.5C50.6,54.1,50.7,54.1,50.6,54z
		 M47.4,53.8l-0.7,0.6c-0.1,0.1-0.2,0.1-0.2,0.1c-0.1-0.1-0.1-0.2-0.1-0.3L46,52.9c0-0.1,0-0.1,0-0.1s0,0,0.1,0l1.3,0.7
		c0.1,0,0.2,0.1,0.2,0.2C47.6,53.7,47.5,53.8,47.4,53.8z"/>
	<path class="st0" d="M27.1,13.5L27,12.8c-0.1-0.3-0.3-0.5-0.6-0.4l-0.6,0.1l-0.1-0.6c-0.1-0.3-0.3-0.5-0.6-0.4l-0.7,0.1
		c-0.3,0.1-0.5,0.3-0.4,0.6l0.1,0.6L23.5,13c-0.3,0.1-0.5,0.3-0.4,0.6l0.1,0.7c0.1,0.3,0.3,0.5,0.6,0.4l2.8-0.6
		C27,14,27.1,13.7,27.1,13.5z M25.3,14.3c-0.4,0.1-0.8-0.2-0.9-0.6c-0.1-0.4,0.2-0.8,0.6-0.9c0.4-0.1,0.8,0.2,0.9,0.6
		C25.9,13.8,25.7,14.2,25.3,14.3z"/>
	<path class="st0" d="M33,11.7h-0.6v-0.6c0-0.3-0.2-0.5-0.5-0.5h-0.7c-0.3,0-0.5,0.2-0.5,0.5v0.6h-0.6c-0.3,0-0.5,0.2-0.5,0.5v0.7
		c0,0.3,0.2,0.5,0.5,0.5H33c0.3,0,0.5-0.2,0.5-0.5v-0.7C33.5,11.9,33.3,11.7,33,11.7z M31.6,13.3c-0.4,0-0.7-0.3-0.7-0.7
		s0.3-0.7,0.7-0.7c0.4,0,0.7,0.3,0.7,0.7S32,13.3,31.6,13.3z"/>
	<path class="st0" d="M39.7,13l-0.6-0.1l0.1-0.6c0.1-0.3-0.1-0.5-0.4-0.6l-0.7-0.1c-0.3-0.1-0.5,0.1-0.6,0.4l-0.1,0.6l-0.6-0.1
		c-0.3-0.1-0.5,0.1-0.6,0.4l-0.1,0.7c-0.1,0.3,0.1,0.5,0.4,0.6l2.8,0.6c0.3,0.1,0.5-0.1,0.6-0.4l0.1-0.7C40.2,13.3,40,13,39.7,13z
		 M38.8,13.7c-0.1,0.4-0.5,0.6-0.9,0.6c-0.4-0.1-0.7-0.5-0.6-0.9c0.1-0.4,0.5-0.6,0.9-0.6C38.7,13,38.9,13.4,38.8,13.7z"/>
	<path class="st0" d="M44.6,14.3c-0.2-0.1-0.6-0.1-0.7,0.2L43.6,15l-0.5-0.3c-0.2-0.1-0.6-0.1-0.7,0.2L42,15.4
		c-0.1,0.2-0.1,0.6,0.2,0.7l1.1,0.7c0.2,0.1,0.6,0.1,0.7-0.2l0.4-0.6c0.1-0.2,0.3-0.5,0.3-0.5l0.6-1L44.6,14.3z M43.4,16.7
		c-0.3-0.2-0.5-0.7-0.2-1c0.2-0.3,0.7-0.5,1-0.3L43.4,16.7z"/>
	<path class="st0" d="M21.2,15.4l-0.4-0.6c-0.1-0.2-0.5-0.3-0.7-0.2L19.7,15l-0.3-0.5c-0.1-0.2-0.5-0.3-0.7-0.2L18,14.6l0.6,1
		c0,0,0.1,0.2,0.3,0.5l0.4,0.6c0.1,0.2,0.5,0.3,0.7,0.2l1.1-0.7C21.3,16,21.4,15.7,21.2,15.4z M19.8,16.7L19,15.4
		c0.3-0.2,0.8-0.1,1,0.3C20.3,16.1,20.2,16.5,19.8,16.7z"/>
	<path class="st0" d="M14.9,13.9h-0.1c0,0,0,0.1-0.1,0.2c0,0-0.1,0.1-0.2,0.1c-1-0.3-2.1-0.6-2.1-0.6c-0.1,0,0-0.2,0-0.5
		c0-0.2-0.1-0.5-0.5-0.9c-0.3-0.2-1.1-0.8-1.9,0.2c-0.3,0.3-0.5,0.6-0.7,0.9c-0.2,0.3-0.3,0.3-0.5,0.5c0,0.1-0.1,0.1,0,0.2
		c0.2,0.2,0.4-0.5,1,0.1l2.4,2.1c0.7,0.6,0.2,0.8,0.4,1c0.1,0.1,0.2,0,0.2-0.1c0.2-0.2,0.4-0.5,0.6-0.7c0.2-0.2,0.3-0.3,0.4-0.4
		c0.1-0.1,0.1-0.2,0-0.2c-0.2-0.2-0.4,0.5-0.9-0.1L12,14.9c-0.2-0.2-0.3-0.2-0.1-0.4s0.3-0.3,0.6-0.1l1.2,0.4c0.4,0.1,0.9,0.3,1.2,0
		C15,14.4,15.1,14,14.9,13.9z M11.6,14.1c-0.1,0.1-0.3,0.3-0.4,0.2l-1.1-1C9.8,13,9.9,12.9,10,12.7c0.4-0.4,1-0.3,1.5,0.1
		C11.9,13.1,12.2,13.4,11.6,14.1z"/>
	<path class="st0" d="M26.5,8.1c-0.1-0.2-0.3,0.1-0.6-0.3L23,4c-0.1-0.2-0.2-0.2-0.2-0.2c-0.1,0-0.1,0.2-0.1,0.3l-0.1,4.7
		c0,0.4-0.3,0.5-0.3,0.6s0.1,0,0.2,0c0.2-0.1,0.3-0.1,0.5-0.2c0.2-0.1,0.4-0.1,0.5-0.1s0.3,0,0.3-0.2C23.7,8.7,23.2,9,23,8.5
		c0-0.1,0-0.4,0-0.5c0-0.5,0.1-0.6,0.2-0.6l1-0.4c0.1,0,0.2,0,0.6,0.5C24.9,7.7,25,7.8,25.1,8c0.1,0.4-0.3,0.5-0.2,0.7
		c0,0.1,0.1,0.1,0.2,0c0.2-0.1,0.4-0.1,0.6-0.2c0.4-0.1,0.5-0.1,0.7-0.2C26.5,8.2,26.6,8.2,26.5,8.1z M24,6.7L23.2,7
		C23.1,7,23,7,23,7c0-0.1,0-0.2,0-0.3V5.3c0-0.1,0-0.1,0-0.1s0,0,0.1,0L24,6.4c0.1,0.1,0.1,0.1,0.1,0.2S24.1,6.7,24,6.7z"/>
	<path class="st0" d="M60.8,30.3c0-0.1-0.1-0.1-0.3-0.1L56,29.1c-0.4-0.1-0.4-0.4-0.6-0.4c-0.1,0-0.1,0.1-0.1,0.2
		c0,0.2,0.1,0.3,0.1,0.5s0,0.4,0,0.5s0,0.3,0.1,0.3c0.2,0,0-0.6,0.5-0.7c0.2,0,0.4,0,0.6,0.1c0.5,0.1,0.5,0.2,0.5,0.3l0.1,1.1
		c0,0.2-0.1,0.2-0.6,0.4c-0.2,0.1-0.3,0.1-0.5,0.2c-0.4,0-0.4-0.4-0.6-0.4c-0.1,0-0.1,0.1-0.1,0.2c0,0.2,0.1,0.4,0.1,0.6
		c0,0.4,0,0.5,0,0.8c0,0.2,0,0.2,0.1,0.2c0.2,0-0.1-0.3,0.4-0.5l4.3-2C60.8,30.4,60.8,30.4,60.8,30.3z M59.3,30.3L58,30.9
		c-0.1,0-0.2,0.1-0.3,0.1s-0.1-0.1-0.1-0.2l0-0.8c0-0.1,0-0.2,0-0.2c0.1,0,0.2,0,0.3,0l1.3,0.3C59.4,30.2,59.4,30.2,59.3,30.3
		C59.4,30.3,59.4,30.2,59.3,30.3z"/>
	<path class="st0" d="M50.3,26.3c-0.2-0.7-0.9-0.9-1.7-0.6c-0.7,0.2-1,0.8-0.8,1.3c0.3,0.9,1.2,0.8,1.7,0.7
		C50.2,27.4,50.5,26.8,50.3,26.3z M49.2,27.3c-0.6,0.2-1.1,0.2-1.2-0.3c-0.2-0.5,0.5-0.9,1-1.1s1-0.2,1.2,0.3
		C50.2,26.6,49.9,27.1,49.2,27.3z"/>
	<path class="st0" d="M49.3,24c-0.1-0.2-0.2-0.4-0.3-0.5c-0.1-0.2-0.1-0.2-0.1-0.3c0,0,0-0.1-0.1,0s0.1,0.3-0.2,0.5l-1.4,0.7
		c-0.4,0.2-0.4-0.1-0.5,0c-0.1,0,0,0.1,0,0.1c0.1,0.1,0.1,0.3,0.2,0.4C47,25,47,25.1,47,25.1C46.9,25,47,25,47,25
		c0.1-0.1-0.1-0.3,0.2-0.4l0.6-0.3c0.1-0.1,0.1-0.1,0.2,0.1c0.1,0.1,0.1,0.2-0.1,0.3l-0.4,0.5c-0.1,0.2-0.3,0.4-0.2,0.6
		c0.1,0.1,0.2,0.3,0.3,0.2c0,0,0,0,0-0.1c0,0,0,0-0.1-0.1v-0.1c0.3-0.4,0.7-0.8,0.7-0.9c0,0,0.1,0.1,0.2,0.1c0.1,0,0.3,0.1,0.5,0
		C49.1,24.8,49.6,24.6,49.3,24z M48.7,24.6c-0.2,0.1-0.4,0.2-0.6-0.3c0-0.1-0.1-0.2,0-0.2l0.7-0.3c0.2-0.1,0.2,0,0.3,0.1
		C49.2,24.2,49,24.5,48.7,24.6z"/>
	<path class="st0" d="M51,30.5c-0.1,0,0,0.3-0.4,0.3L49,30.6c-0.5,0-0.3-0.3-0.4-0.3c-0.1,0-0.1,0.1-0.1,0.1c0,0.2,0,0.3,0,0.5
		c0,0.1,0,0.2,0,0.3c0,0.1,0,0.1,0,0.1c0.1,0,0-0.3,0.4-0.3l0.6,0.1c0.1,0,0.2,0,0.1,0.2c0,0.2-0.1,0.2-0.2,0.3l-0.6,0.2
		c-0.2,0.1-0.5,0.1-0.5,0.4c0,0.1,0,0.3,0.2,0.3h0.1v-0.1c0,0,0-0.1,0.1-0.1c0.5-0.2,1-0.4,1-0.4s0.1,0.1,0.1,0.2
		c0.1,0.1,0.2,0.2,0.4,0.2s0.7,0,0.7-0.7c0-0.2,0-0.4,0-0.6C51,30.7,51,30.7,51,30.5L51,30.5z M50.8,31.4c0,0.3-0.3,0.4-0.7,0.4
		c-0.2,0-0.4-0.1-0.4-0.5c0-0.1,0-0.2,0.1-0.2l0.7,0.1C50.8,31.1,50.8,31.2,50.8,31.4z"/>
	<path class="st0" d="M17.4,22.6c-0.1-0.1-0.1,0.2-0.3,0.1l-2.2-0.3c-0.1,0-0.1,0-0.1,0s0,0.1,0.1,0.1l1.4,1.7
		c0.1,0.2,0,0.3,0.1,0.3c0,0,0.1,0,0.1-0.1s0.1-0.2,0.1-0.2c0-0.1,0.1-0.2,0.2-0.2c0-0.1,0.1-0.1,0-0.2c-0.1,0-0.2,0.3-0.4,0.2
		c-0.1,0-0.2-0.1-0.2-0.2c-0.2-0.2-0.1-0.2-0.1-0.3l0.3-0.5c0-0.1,0.1-0.1,0.4,0c0.1,0,0.2,0,0.2,0.1c0.2,0.1,0,0.3,0.1,0.3
		c0,0,0.1,0,0.1-0.1s0.1-0.2,0.2-0.3c0.1-0.2,0.1-0.2,0.2-0.3C17.4,22.7,17.5,22.7,17.4,22.6z M16,23.1l-0.2,0.4c0,0,0,0.1-0.1,0.1
		l-0.1-0.1L15.2,23l0,0l0,0l0.7,0.1C16,23,16,23,16,23.1C16.1,23,16.1,23,16,23.1z"/>
	<path class="st1" d="M41.7,22.4h-0.2H20.8v11.4c0,5.1,0.3,9.2,4.2,13.2c2.3,2.3,3.8,3.4,6.4,5.1l0.2,0.1l0.3,0.2l0.3-0.2
		c0.8-0.7,1.5-1.2,2.2-1.6c1.4-1,2.6-1.8,4.1-3.7c3.7-4.4,4.3-7.7,4.3-13.1V22.4H41.7z M37.6,46.4c-1.4,1.7-2.6,2.5-3.9,3.5
		c-0.7,0.5-1.1,0.8-1.9,1.5c-2.5-1.7-4-2.7-6.1-4.9c-3.6-3.7-3.9-7.5-3.9-12.5V23.3h20v10.5C41.7,39.1,41.1,42.2,37.6,46.4z"/>
	<polygon class="st0" points="53.7,11.2 53.3,10.6 53,11.6 53.2,12 	"/>
	<path class="st0" d="M27.7,7c0.2,0.8-0.5,0.6-0.5,0.9c0,0.2,0.1,0.1,0.2,0.1c0.2,0,0.4-0.1,0.8-0.2s0.6-0.1,0.8-0.1
		c0.2,0,0.3,0,0.2-0.2c0-0.2-0.7,0.2-0.9-0.7l-0.7-3.2c-0.1-0.3,0-0.4,0.2-0.4L28.4,3C29,2.9,29,3.7,29.2,3.6c0.1,0,0-0.3,0-0.4
		L29,2.6c0-0.1,0-0.2-0.1-0.2c-0.5,0.1-0.9,0.2-1.7,0.4C26.4,3,26,3,25.4,3.1c-0.1,0-0.1,0.1-0.1,0.2l0.1,1c0,0.1,0,0.3,0.1,0.2
		c0.3-0.1-0.1-1,0.5-1.1l0.5-0.1c0.2,0,0.3,0,0.4,0.3L27.7,7z"/>
	<path class="st0" d="M20,9.7c0.4,0.8-0.3,0.8-0.2,1c0.1,0.1,0.2,0.1,0.3,0c0.2-0.1,0.4-0.2,0.7-0.4c0.3-0.2,0.5-0.2,0.7-0.4
		c0.1-0.1,0.3-0.1,0.2-0.3C21.6,9.4,21,10,20.6,9.2l-1.5-2.9C18.9,6.1,19,6,19.2,5.9l0.4-0.2c0.6-0.3,0.8,0.5,1,0.4
		c0.1-0.1-0.1-0.3-0.1-0.4l-0.4-0.6C20.1,5,20,4.9,20,5c-0.5,0.3-0.8,0.5-1.6,0.9c-0.8,0.4-1.1,0.5-1.6,0.8c-0.1,0,0,0.1,0,0.2
		l0.4,0.9c0,0.1,0.1,0.2,0.2,0.2c0.2-0.2-0.4-1,0.2-1.3L18,6.5c0.2-0.1,0.3-0.1,0.4,0.2L20,9.7z"/>
	<polygon class="st0" points="28.7,55 28,55.1 28.8,55.8 29.2,55.8 	"/>
</g>
</svg>
